<svg width="40" height="40" viewBox="0 0 40 40" fill="none" xmlns="http://www.w3.org/2000/svg">
<path d="M20 40C31.0457 40 40 31.0457 40 20C40 8.9543 31.0457 0 20 0C8.9543 0 0 8.9543 0 20C0 31.0457 8.9543 40 20 40Z" fill="#437CEB"/>
<path d="M29.0003 23.166C27.3419 25.5491 24.083 27.166 20.3337 27.166C16.5843 27.166 13.3255 25.5491 11.667 23.166" stroke="white" stroke-linecap="round" stroke-linejoin="round"/>
<path d="M11.6667 13.834C12.177 13.0396 13.1797 12.5007 14.3333 12.5007C15.487 12.5007 16.4897 13.0396 17 13.834" stroke="white" stroke-linecap="round" stroke-linejoin="round"/>
<path d="M23.6667 13.834C24.177 13.0396 25.1797 12.5007 26.3333 12.5007C27.487 12.5007 28.4897 13.0396 29 13.834" stroke="white" stroke-linecap="round" stroke-linejoin="round"/>
<path d="M15 20.5C16.1046 20.5 17 19.6046 17 18.5C17 17.3954 16.1046 16.5 15 16.5C13.8954 16.5 13 17.3954 13 18.5C13 19.6046 13.8954 20.5 15 20.5Z" fill="white"/>
<path d="M25.667 20.5C26.7716 20.5 27.667 19.6046 27.667 18.5C27.667 17.3954 26.7716 16.5 25.667 16.5C24.5624 16.5 23.667 17.3954 23.667 18.5C23.667 19.6046 24.5624 20.5 25.667 20.5Z" fill="white"/>
</svg>
