<svg width="19" height="18" viewBox="0 0 19 18" fill="none" xmlns="http://www.w3.org/2000/svg">
<g clip-path="url(#clip0_4318_11959)">
<path opacity="0.25" d="M18.5 0H0.5V18H18.5V0Z" fill="white"/>
<path opacity="0.25" d="M16.5 2H2.5V16H16.5V2Z" fill="white"/>
<path opacity="0.25" d="M15.5 17L15.5 1L3.5 1L3.5 17H15.5Z" fill="white"/>
<path opacity="0.25" d="M17.5 3H1.5V15H17.5V3Z" fill="white"/>
<path d="M9.73306 7.2C11.2072 7.2 12.4022 6.03594 12.4022 4.6C12.4022 3.16406 11.2072 2 9.73306 2C8.25896 2 7.06396 3.16406 7.06396 4.6C7.06396 6.03594 8.25896 7.2 9.73306 7.2Z" stroke="#9E9E9E" stroke-width="1.5" stroke-miterlimit="10"/>
<path d="M3.86108 14.9993C3.86108 11.8402 6.49008 9.2793 9.73308 9.2793C11.765 9.2793 13.5558 10.2846 14.61 11.8124" stroke="#9E9E9E" stroke-width="1.5" stroke-miterlimit="10" stroke-linecap="round"/>
<path d="M15.5 14.75C15.2998 14.75 15.1099 14.6699 14.9697 14.5298C14.8295 14.3897 14.75 14.1997 14.75 14C14.75 13.8999 14.77 13.8101 14.8101 13.71C14.8497 13.6197 14.8999 13.5401 14.9698 13.4698C15.0401 13.4 15.1197 13.3497 15.21 13.3101C15.3999 13.23 15.6099 13.23 15.7901 13.3101C15.8799 13.3497 15.96 13.3999 16.0298 13.4698C16.0996 13.5401 16.1499 13.6197 16.19 13.71C16.23 13.8101 16.2501 13.8999 16.2501 14C16.2501 14.1997 16.17 14.3896 16.0299 14.5298C15.9601 14.5996 15.88 14.6597 15.7902 14.69C15.6999 14.73 15.5996 14.75 15.5 14.75Z" fill="#9E9E9E"/>
</g>
<defs>
<clipPath id="clip0_4318_11959">
<rect width="18" height="18" fill="white" transform="translate(0.5)"/>
</clipPath>
</defs>
</svg>
