<svg width="24" height="24" viewBox="0 0 24 24" fill="none" xmlns="http://www.w3.org/2000/svg">
<path d="M4.31801 6.28681C3.90014 6.69477 3.56867 7.1791 3.34252 7.71213C3.11637 8.24516 2.99997 8.81646 2.99997 9.39341C2.99997 9.97036 3.11637 10.5417 3.34252 11.0747C3.56867 11.6077 3.90014 12.0921 4.31801 12.5L12 20L19.682 12.5C20.5259 11.6761 21 10.5586 21 9.39341C21 8.22821 20.5259 7.11073 19.682 6.28681C18.8381 5.46289 17.6935 5.00001 16.5 5.00001C15.3065 5.00001 14.1619 5.46289 13.318 6.28681L12 7.57358L10.682 6.28681C10.2641 5.87884 9.76807 5.55522 9.2221 5.33443C8.67613 5.11364 8.09096 5 7.50001 5C6.90906 5 6.32389 5.11364 5.77792 5.33443C5.23195 5.55522 4.73587 5.87884 4.31801 6.28681Z" stroke="#808080" stroke-width="1.5" stroke-linecap="round" stroke-linejoin="round"/>
</svg>
