<svg width="19" height="18" viewBox="0 0 19 18" fill="none" xmlns="http://www.w3.org/2000/svg">
<g clip-path="url(#clip0_4318_8806)">
<path opacity="0.25" d="M18.5 0H0.5V18H18.5V0Z" fill="white"/>
<path opacity="0.25" d="M16.5 2H2.5V16H16.5V2Z" fill="white"/>
<path opacity="0.25" d="M15.5 17L15.5 1L3.5 1L3.5 17H15.5Z" fill="white"/>
<path opacity="0.25" d="M17.5 3H1.5V15H17.5V3Z" fill="white"/>
<path d="M9.5 13C11.7091 13 13.5 11.2091 13.5 9C13.5 6.79086 11.7091 5 9.5 5C7.29086 5 5.5 6.79086 5.5 9C5.5 11.2091 7.29086 13 9.5 13Z" stroke="#9E9E9E" stroke-width="1.5" stroke-miterlimit="10"/>
<path d="M14.4498 13.9493L13.7427 13.2422" stroke="#9E9E9E" stroke-width="1.5" stroke-miterlimit="10" stroke-linecap="round"/>
<path d="M5.25739 4.75788L4.55029 4.05078" stroke="#9E9E9E" stroke-width="1.5" stroke-miterlimit="10" stroke-linecap="round"/>
<path d="M14.4498 4.05078L13.7427 4.75788" stroke="#9E9E9E" stroke-width="1.5" stroke-miterlimit="10" stroke-linecap="round"/>
<path d="M5.25739 13.2422L4.55029 13.9493" stroke="#9E9E9E" stroke-width="1.5" stroke-miterlimit="10" stroke-linecap="round"/>
<path d="M16.5 9H15.5" stroke="#9E9E9E" stroke-width="1.5" stroke-miterlimit="10" stroke-linecap="round"/>
<path d="M3.5 9H2.5" stroke="#9E9E9E" stroke-width="1.5" stroke-miterlimit="10" stroke-linecap="round"/>
<path d="M9.5 2V3" stroke="#9E9E9E" stroke-width="1.5" stroke-miterlimit="10" stroke-linecap="round"/>
<path d="M9.5 15V16" stroke="#9E9E9E" stroke-width="1.5" stroke-miterlimit="10" stroke-linecap="round"/>
</g>
<defs>
<clipPath id="clip0_4318_8806">
<rect width="18" height="18" fill="white" transform="translate(0.5)"/>
</clipPath>
</defs>
</svg>
