<svg width="18" height="18" viewBox="0 0 18 18" fill="none" xmlns="http://www.w3.org/2000/svg">
<g clip-path="url(#clip0_4318_8795)">
<path opacity="0.25" d="M18 0H0V18H18V0Z" fill="white"/>
<path opacity="0.25" d="M16 2H2V16H16V2Z" fill="white"/>
<path opacity="0.25" d="M15 17L15 1L3 1L3 17H15Z" fill="white"/>
<path opacity="0.25" d="M17 3H1V15H17V3Z" fill="white"/>
<path d="M14.6402 6.69923L9.6402 2.53253C9.2694 2.22353 8.7307 2.22353 8.3598 2.53253L3.3598 6.69923C3.1318 6.88923 3 7.17063 3 7.46743V13.999C3 14.5513 3.4477 14.999 4 14.999H6.5858C6.851 14.999 7.1054 14.8936 7.2929 14.7061L8.2929 13.7061C8.6834 13.3156 9.3166 13.3156 9.7071 13.7061L10.7071 14.7061C10.8946 14.8936 11.149 14.999 11.4142 14.999H14C14.5523 14.999 15 14.5513 15 13.999V10.999" stroke="#282828" stroke-width="1.5" stroke-miterlimit="10" stroke-linecap="round"/>
<path d="M15 9.74812C14.8999 9.74812 14.8101 9.72812 14.71 9.68802C14.6197 9.65772 14.5401 9.59772 14.4698 9.52782C14.4 9.45802 14.3497 9.37792 14.3101 9.28812C14.2701 9.19782 14.25 9.09772 14.25 8.99812C14.25 8.79792 14.3296 8.60802 14.4697 8.46782C14.54 8.39802 14.6196 8.34772 14.7099 8.30812C14.8998 8.22802 15.0995 8.22802 15.29 8.30812C15.3798 8.34772 15.4599 8.39792 15.5297 8.46782C15.6698 8.60792 15.7499 8.79792 15.7499 8.99812C15.7499 9.09772 15.7299 9.19782 15.6898 9.28812C15.6595 9.37792 15.5995 9.45802 15.5296 9.52782C15.4597 9.59762 15.3797 9.65772 15.2899 9.68802C15.1996 9.72802 15.0996 9.74812 15 9.74812Z" fill="#EB4351"/>
</g>
<defs>
<clipPath id="clip0_4318_8795">
<rect width="18" height="18" fill="white"/>
</clipPath>
</defs>
</svg>
