<svg width="24" height="24" viewBox="0 0 24 24" fill="none" xmlns="http://www.w3.org/2000/svg">
<g clip-path="url(#clip0_4327_9205)">
<path opacity="0.25" d="M24 0H0V24H24V0Z" fill="white"/>
<path opacity="0.25" d="M20.25 21.75V2.25L3.75 2.25V21.75H20.25Z" fill="white"/>
<path opacity="0.25" d="M21 21V3L3 3V21H21Z" fill="white"/>
<path opacity="0.25" d="M21.75 3.75H2.25V20.25H21.75V3.75Z" fill="white"/>
<path d="M18.84 18.8407H20.28C20.6777 18.8407 21 18.5184 21 18.1207V17.9972C21 17.6153 20.8483 17.249 20.5782 16.9789L19.0509 15.4516C18.9159 15.3166 18.84 15.1334 18.84 14.9425V10.795C18.84 7.15187 16.0908 3.97083 12.4553 3.73547C8.47157 3.47756 5.16 6.63239 5.16 10.5607V14.9425C5.16 15.1334 5.08411 15.3166 4.94911 15.4516L3.42178 16.9789C3.1517 17.249 3 17.6153 3 17.9972V18.1207C3 18.5184 3.32234 18.8407 3.72 18.8407H12.54" stroke="#282828" stroke-width="1.5" stroke-miterlimit="10" stroke-linecap="round"/>
<path d="M15.7802 19.5604C16.3767 19.5604 16.8602 19.0769 16.8602 18.4804C16.8602 17.8839 16.3767 17.4004 15.7802 17.4004C15.1837 17.4004 14.7002 17.8839 14.7002 18.4804C14.7002 19.0769 15.1837 19.5604 15.7802 19.5604Z" fill="#EB4351"/>
<path d="M10.3799 21H13.2599" stroke="#282828" stroke-width="1.5" stroke-miterlimit="10" stroke-linecap="round"/>
<path d="M11.8201 3V3.72" stroke="#282828" stroke-width="1.5" stroke-miterlimit="10" stroke-linecap="round"/>
</g>
<defs>
<clipPath id="clip0_4327_9205">
<rect width="24" height="24" fill="white"/>
</clipPath>
</defs>
</svg>
