<svg width="343" height="56" viewBox="0 0 343 56" fill="none" xmlns="http://www.w3.org/2000/svg">
<rect width="343" height="56" rx="10" fill="#FFE600"/>
<path d="M129.872 22.544C129.872 26.704 128.576 30.4 123.472 32.96L122.688 31.84C125.216 30.576 126.736 29.04 127.568 27.232L122.976 27.68L122.768 26.4L128.016 26.064C128.24 25.328 128.368 24.544 128.416 23.728H123.488V22.544H129.872ZM132.016 35.216V21.088H133.504V26.752H135.68V27.968H133.504V35.216H132.016ZM143.536 22.544C143.536 26.704 142.24 30.4 137.136 32.96L136.352 31.84C138.88 30.576 140.4 29.04 141.232 27.232L136.64 27.68L136.432 26.4L141.68 26.064C141.904 25.328 142.032 24.544 142.08 23.728H137.152V22.544H143.536ZM145.68 35.216V21.088H147.168V26.752H149.344V27.968H147.168V35.216H145.68ZM156.289 21.984C159.297 21.984 161.457 23.456 161.457 25.712C161.457 27.808 159.649 29.2 157.025 29.424V32.24H162.705V33.44H149.921V32.24H155.569V29.424C152.961 29.216 151.137 27.808 151.137 25.712C151.137 23.456 153.313 21.984 156.289 21.984ZM152.561 25.712C152.561 27.28 154.129 28.304 156.289 28.304C158.465 28.304 160.033 27.28 160.033 25.712C160.033 24.144 158.465 23.136 156.289 23.136C154.129 23.136 152.561 24.144 152.561 25.712ZM163.585 28.704H169.217V27.328H165.249V21.488H174.785V22.624H166.705V23.808H174.433V24.912H166.705V26.192H174.881V27.328H170.673V28.704H176.321V29.872H163.585V28.704ZM165.009 32.192V31.024H174.705V35.232H173.233V32.192H165.009ZM183.618 21.952C186.578 21.952 188.786 23.52 188.786 25.888C188.786 28.256 186.578 29.824 183.618 29.824C180.69 29.824 178.466 28.256 178.466 25.888C178.466 23.52 180.69 21.952 183.618 21.952ZM177.25 33.376V32.16H190.034V33.376H177.25ZM179.874 25.888C179.874 27.552 181.474 28.624 183.618 28.624C185.794 28.624 187.378 27.552 187.378 25.888C187.378 24.224 185.794 23.136 183.618 23.136C181.474 23.136 179.874 24.224 179.874 25.888ZM190.914 32.32H196.562V29.792H192.482V25.328H200.706V23.296H192.45V22.112H202.162V26.48H193.922V28.608H202.482V29.792H198.018V32.32H203.698V33.52H190.914V32.32ZM207.946 32.32H213.594V29.792H209.514V25.328H217.738V23.296H209.482V22.112H219.194V26.48H210.954V28.608H219.514V29.792H215.05V32.32H220.73V33.52H207.946V32.32ZM222.986 22.544H232.698V24.016C232.698 25.856 232.698 27.856 232.17 30.864L230.698 30.736C231.242 27.904 231.242 25.824 231.242 24.016V23.728H222.986V22.544ZM221.61 33.216V32H234.378V33.216H221.61ZM245.403 21.12H246.875V31.376H245.403V21.12ZM235.563 25.584C235.563 23.52 237.179 22.08 239.275 22.08C241.387 22.08 242.987 23.52 242.987 25.584C242.987 27.616 241.387 29.072 239.275 29.072C237.179 29.072 235.563 27.616 235.563 25.584ZM236.987 25.584C236.987 26.896 237.979 27.792 239.275 27.792C240.587 27.792 241.579 26.896 241.579 25.584C241.579 24.24 240.587 23.344 239.275 23.344C237.979 23.344 236.987 24.24 236.987 25.584ZM237.739 34.928V30.336H239.195V33.728H247.291V34.928H237.739Z" fill="black"/>
<g clip-path="url(#clip0_4125_71007)">
<path fill-rule="evenodd" clip-rule="evenodd" d="M103 19.4761C98.0292 19.4761 94 22.6055 94 26.4651C94 28.8655 95.5584 30.9815 97.9315 32.2401L96.933 35.9069C96.8448 36.2309 97.2134 36.4892 97.4965 36.3014L101.873 33.3974C102.243 33.4333 102.618 33.4542 103 33.4542C107.97 33.4542 112 30.3249 112 26.4651C112 22.6055 107.97 19.4761 103 19.4761Z" fill="black" fill-opacity="0.85"/>
</g>
<defs>
<clipPath id="clip0_4125_71007">
<rect width="18" height="18" fill="white" transform="translate(94 19)"/>
</clipPath>
</defs>
</svg>
