<svg width="93" height="91" viewBox="0 0 93 91" fill="none" xmlns="http://www.w3.org/2000/svg">
<path d="M80.0507 55.4865C81.028 55.4865 81.8202 54.7051 81.8202 53.7413C81.8202 52.7774 81.028 51.9961 80.0507 51.9961C79.0735 51.9961 78.2812 52.7774 78.2812 53.7413C78.2812 54.7051 79.0735 55.4865 80.0507 55.4865Z" fill="#FFDCBB"/>
<path d="M60.1464 21.0021C61.1237 21.0021 61.9159 20.2208 61.9159 19.2569C61.9159 18.2931 61.1237 17.5117 60.1464 17.5117C59.1692 17.5117 58.377 18.2931 58.377 19.2569C58.377 20.2208 59.1692 21.0021 60.1464 21.0021Z" fill="#FFDCBB"/>
<path d="M26.9667 84.1642C27.944 84.1642 28.7362 83.3829 28.7362 82.419C28.7362 81.4552 27.944 80.6738 26.9667 80.6738C25.9895 80.6738 25.1973 81.4552 25.1973 82.419C25.1973 83.3829 25.9895 84.1642 26.9667 84.1642Z" fill="#FFDCBB"/>
<path d="M17.2597 29.5605L14.8069 31.6325C14.4217 31.9579 14.547 32.5625 15.0325 32.7207L18.1238 33.7287C18.6092 33.8869 19.0908 33.4802 18.9904 32.9965L18.3519 29.9164C18.2517 29.4326 17.6449 29.2351 17.2597 29.5605Z" fill="#FF986B"/>
<path d="M46.8955 85.4942L41.8171 82.7156C41.0196 82.2792 40.0629 82.863 40.0953 83.7666L40.3005 89.5195C40.3329 90.4228 41.3296 90.9685 42.095 90.5012L46.9684 87.5268C47.7339 87.0597 47.693 85.9305 46.8955 85.4942Z" fill="#FF949A"/>
<path d="M80.0741 36.789L77.6213 38.861C77.2362 39.1864 77.3614 39.791 77.847 39.9492L80.9382 40.9572C81.4236 41.1154 81.9052 40.7088 81.8048 40.225L81.1664 37.1449C81.0662 36.6611 80.4593 36.4636 80.0741 36.789Z" fill="#B0DEFF"/>
<path fill-rule="evenodd" clip-rule="evenodd" d="M61.1352 76.9218C66.9235 75.3873 68.3069 62.1003 64.225 47.2443C60.1431 32.3884 52.1418 21.5893 46.3534 23.1238C45.113 23.7134 44.0766 24.4128 43.2216 25.218C42.9942 25.3568 42.7736 25.5164 42.5619 25.6973L20.8628 44.2445L1.756 60.5812C-1.51586 63.3787 0.0416153 68.7281 4.30381 69.332L29.4624 72.8969L57.8507 76.9126C57.994 76.9329 58.1362 76.947 58.2772 76.9552C59.1813 77.0884 60.1324 77.081 61.1352 76.9218Z" fill="#FFCF37"/>
<path d="M76.0723 70.1407C76.957 68.2578 79.3458 64.9265 81.8231 66.6646C84.9197 68.8372 89.3433 72.313 91.9976 70.1407" stroke="#FFDC5F" stroke-width="2" stroke-linecap="round" stroke-linejoin="round"/>
<path d="M36.7035 17.1218C35.0076 15.8865 32.1754 12.9093 34.4134 10.8822C37.211 8.34825 41.5784 4.80437 39.9555 1.80858" stroke="#5FA8FF" stroke-width="2" stroke-linecap="round" stroke-linejoin="round"/>
<path d="M65.457 32.2842C67.6689 24.6805 72.0926 27.3961 74.3044 27.3961C76.0739 27.3961 77.9908 24.8612 78.7281 23.5938" stroke="#FC8989" stroke-width="2" stroke-linecap="round" stroke-linejoin="round"/>
<path d="M68.1348 85.084C66.9325 84.7993 64.4489 84.6515 64.1328 86.3376C63.8167 88.0236 64.2512 89.4917 64.508 90.0151" stroke="#72BBFF" stroke-width="2" stroke-linecap="round" stroke-linejoin="round"/>
<ellipse cx="6.60965" cy="23.6865" rx="6.60965" ry="23.6865" transform="matrix(0.96661 -0.25625 0.264944 0.964264 41.5684 29.5879)" fill="#FFA828"/>
</svg>
