<svg width="24" height="24" viewBox="0 0 24 24" fill="none" xmlns="http://www.w3.org/2000/svg">
<path d="M15 3H10V4.61905H15V3ZM11.6667 13.5238H13.3333V8.66667H11.6667V13.5238ZM18.3583 8.17286L19.5417 7.02333C19.1833 6.61048 18.7917 6.2219 18.3667 5.8819L17.1833 7.03143C15.8917 6.02762 14.2667 5.42857 12.5 5.42857C8.35833 5.42857 5 8.69095 5 12.7143C5 16.7376 8.35 20 12.5 20C16.65 20 20 16.7376 20 12.7143C20 10.9981 19.3833 9.41952 18.3583 8.17286ZM12.5 18.381C9.275 18.381 6.66667 15.8471 6.66667 12.7143C6.66667 9.58143 9.275 7.04762 12.5 7.04762C15.725 7.04762 18.3333 9.58143 18.3333 12.7143C18.3333 15.8471 15.725 18.381 12.5 18.381Z" fill="black"/>
</svg>
