<svg width="205" height="86" viewBox="0 0 205 86" fill="none" xmlns="http://www.w3.org/2000/svg">
<g filter="url(#filter0_d_4125_66446)">
<mask id="path-1-inside-1_4125_66446" fill="white">
<path fill-rule="evenodd" clip-rule="evenodd" d="M154.917 18L163 4L171.083 18H189C193.418 18 197 21.5817 197 26V66C197 70.4183 193.418 74 189 74H16C11.5817 74 8 70.4183 8 66V26C8 21.5817 11.5817 18 16 18H154.917Z"/>
</mask>
<path fill-rule="evenodd" clip-rule="evenodd" d="M154.917 18L163 4L171.083 18H189C193.418 18 197 21.5817 197 26V66C197 70.4183 193.418 74 189 74H16C11.5817 74 8 70.4183 8 66V26C8 21.5817 11.5817 18 16 18H154.917Z" fill="white"/>
<path d="M163 4L162.134 3.5L163 2L163.866 3.5L163 4ZM154.917 18L155.783 18.5L155.494 19H154.917V18ZM171.083 18V19H170.506L170.217 18.5L171.083 18ZM163.866 4.5L155.783 18.5L154.051 17.5L162.134 3.5L163.866 4.5ZM170.217 18.5L162.134 4.5L163.866 3.5L171.949 17.5L170.217 18.5ZM189 19H171.083V17H189V19ZM196 26C196 22.134 192.866 19 189 19V17C193.971 17 198 21.0294 198 26H196ZM196 66V26H198V66H196ZM189 73C192.866 73 196 69.866 196 66H198C198 70.9706 193.971 75 189 75V73ZM16 73H189V75H16V73ZM9 66C9 69.866 12.134 73 16 73V75C11.0294 75 7 70.9706 7 66H9ZM9 26V66H7V26H9ZM16 19C12.134 19 9 22.134 9 26H7C7 21.0294 11.0294 17 16 17V19ZM154.917 19H16V17H154.917V19Z" fill="#D8D8D8" mask="url(#path-1-inside-1_4125_66446)"/>
</g>
<path d="M22.032 41.014H20.87V32.18L19.218 33.244L18.644 32.32L20.87 30.892H22.032V41.014ZM28.0897 30.794V32.936C28.0897 33.6733 28.2297 34.4013 28.5097 35.12C28.7991 35.8387 29.1911 36.478 29.6857 37.038C30.1804 37.598 30.7311 38.018 31.3377 38.298L30.6237 39.278C29.9237 38.9327 29.2984 38.424 28.7477 37.752C28.2064 37.08 27.7911 36.31 27.5017 35.442C27.2217 36.366 26.8017 37.1873 26.2417 37.906C25.6911 38.6153 25.0517 39.152 24.3237 39.516L23.5817 38.508C24.1977 38.2187 24.7577 37.7847 25.2617 37.206C25.7657 36.6273 26.1577 35.9647 26.4377 35.218C26.7271 34.4713 26.8717 33.7107 26.8717 32.936V30.794H28.0897ZM32.5417 29.716H33.7597V42.078H32.5417V29.716ZM45.2121 29.744V33.426H47.0181V34.434H45.2121V38.704H43.9941V29.744H45.2121ZM35.6361 36.352C37.0921 35.9133 38.2541 35.288 39.1221 34.476C39.9901 33.6547 40.4801 32.7213 40.5921 31.676H36.1541V30.682H41.9081C41.9081 32.2593 41.3994 33.622 40.3821 34.77C39.3741 35.918 37.9647 36.772 36.1541 37.332L35.6361 36.352ZM37.4981 37.794H38.7161V40.804H45.7441V41.784H37.4981V37.794ZM53.7664 30.962V38.956H48.0824V30.962H53.7664ZM52.5764 37.976V31.928H49.2724V37.976H52.5764ZM55.8804 29.744H57.0984V34.63H59.0864V35.638H57.0984V42.064H55.8804V29.744ZM69.0547 29.716V34.546H71.0427V35.554H69.0547V42.078H67.8367V29.716H69.0547ZM60.0807 30.934H65.8067V31.914H61.2847V37.99C62.4141 37.99 63.3941 37.962 64.2247 37.906C65.0554 37.8407 65.8907 37.7287 66.7307 37.57L66.8707 38.606C65.9841 38.774 65.1114 38.886 64.2527 38.942C63.3941 38.9887 62.3301 39.012 61.0607 39.012H60.0807V30.934ZM72.415 42.666H71.547L72.009 39.866H73.241L72.415 42.666ZM81.7494 30.626V31.284C81.7494 31.9 81.9594 32.46 82.3794 32.964C82.8088 33.468 83.3874 33.8273 84.1154 34.042L83.5134 34.938C82.9721 34.7607 82.5054 34.504 82.1134 34.168C81.7214 33.8227 81.4181 33.4213 81.2034 32.964C80.9701 33.4867 80.6388 33.944 80.2094 34.336C79.7894 34.7187 79.2808 35.008 78.6834 35.204L78.0954 34.294C78.8701 34.042 79.4768 33.6453 79.9154 33.104C80.3634 32.5533 80.5874 31.9467 80.5874 31.284V30.626H81.7494ZM77.9274 35.932C80.7181 35.932 82.8414 35.82 84.2974 35.596L84.3674 36.492C83.6954 36.6413 82.8088 36.758 81.7074 36.842V41.07H80.5594V36.912C79.7381 36.9493 78.9074 36.968 78.0674 36.968L77.9274 35.932ZM82.7994 37.668H85.0534V29.996H86.2014V41.42H85.0534V38.606H82.7994V37.668ZM87.3914 29.744H88.5534V42.064H87.3914V29.744ZM100.16 29.744V42.064H98.9418V29.744H100.16ZM90.0238 38.018C90.7331 38.018 91.2791 38.0133 91.6618 38.004V32.026H90.3318V31.046H97.3038V32.026H95.9738V37.864C96.8138 37.7893 97.4578 37.7287 97.9058 37.682L97.9898 38.564C96.8231 38.76 95.6191 38.886 94.3778 38.942C93.1364 38.998 91.7271 39.0307 90.1498 39.04L90.0238 38.018ZM92.8378 37.99C93.7151 37.9713 94.3684 37.9527 94.7978 37.934V32.026H92.8378V37.99ZM113.152 34.84V35.82H102.022V34.84H113.152ZM103.338 36.842H111.71V39.768H104.556V40.958H112.088V41.924H103.38V38.886H110.534V37.78H103.338V36.842ZM103.492 30.122H111.696V31.102H104.682V32.922H111.822V33.888H103.492V30.122ZM121.097 30.794V32.936C121.097 33.6547 121.228 34.3687 121.489 35.078C121.76 35.778 122.128 36.408 122.595 36.968C123.071 37.528 123.603 37.9527 124.191 38.242L123.449 39.194C122.786 38.8487 122.198 38.3447 121.685 37.682C121.172 37.0193 120.78 36.2633 120.509 35.414C120.238 36.3193 119.837 37.1267 119.305 37.836C118.773 38.5453 118.162 39.082 117.471 39.446L116.729 38.466C117.336 38.1673 117.877 37.7287 118.353 37.15C118.838 36.562 119.216 35.8993 119.487 35.162C119.767 34.4247 119.907 33.6827 119.907 32.936V30.794H121.097ZM125.185 29.744H126.403V34.686H128.405V35.722H126.403V42.064H125.185V29.744ZM138.961 29.716V42.078H137.743V29.716H138.961ZM129.287 34.98C129.287 34.112 129.418 33.356 129.679 32.712C129.95 32.0587 130.323 31.5547 130.799 31.2C131.285 30.8453 131.831 30.668 132.437 30.668C133.044 30.668 133.585 30.8453 134.061 31.2C134.547 31.5547 134.92 32.0587 135.181 32.712C135.452 33.356 135.587 34.112 135.587 34.98C135.587 35.8387 135.452 36.5947 135.181 37.248C134.92 37.9013 134.547 38.4053 134.061 38.76C133.585 39.1147 133.044 39.292 132.437 39.292C131.831 39.292 131.285 39.1147 130.799 38.76C130.323 38.4053 129.95 37.9013 129.679 37.248C129.418 36.5947 129.287 35.8387 129.287 34.98ZM130.463 34.98C130.463 35.624 130.547 36.1933 130.715 36.688C130.883 37.1733 131.117 37.5513 131.415 37.822C131.714 38.0833 132.055 38.214 132.437 38.214C132.82 38.214 133.161 38.0833 133.459 37.822C133.758 37.5513 133.991 37.1733 134.159 36.688C134.327 36.1933 134.411 35.624 134.411 34.98C134.411 34.336 134.327 33.7713 134.159 33.286C133.991 32.7913 133.758 32.4133 133.459 32.152C133.161 31.8907 132.82 31.76 132.437 31.76C132.055 31.76 131.714 31.8907 131.415 32.152C131.117 32.4133 130.883 32.7913 130.715 33.286C130.547 33.7713 130.463 34.336 130.463 34.98ZM151.296 29.73V42.05H150.134V29.73H151.296ZM140.964 35.05C140.964 34.1727 141.071 33.412 141.286 32.768C141.5 32.1147 141.804 31.6153 142.196 31.27C142.597 30.9153 143.059 30.738 143.582 30.738C144.328 30.738 144.935 31.074 145.402 31.746C145.868 32.4087 146.139 33.3233 146.214 34.49H147.684V29.996H148.832V41.434H147.684V35.484H146.214C146.167 36.688 145.906 37.64 145.43 38.34C144.963 39.0307 144.347 39.376 143.582 39.376C143.059 39.376 142.597 39.2033 142.196 38.858C141.804 38.5033 141.5 37.9993 141.286 37.346C141.071 36.6927 140.964 35.9273 140.964 35.05ZM142.07 35.05C142.07 36.0393 142.205 36.8187 142.476 37.388C142.746 37.9573 143.115 38.242 143.582 38.242C144.058 38.242 144.431 37.962 144.702 37.402C144.972 36.8327 145.108 36.0487 145.108 35.05C145.108 34.0607 144.972 33.286 144.702 32.726C144.431 32.1567 144.058 31.872 143.582 31.872C143.115 31.872 142.746 32.1567 142.476 32.726C142.205 33.286 142.07 34.0607 142.07 35.05ZM161.726 33.874V29.716H162.93V42.078H161.726V34.868H158.926V33.874H161.726ZM152.738 38.494C153.335 38.1953 153.877 37.7567 154.362 37.178C154.847 36.59 155.225 35.9273 155.496 35.19C155.776 34.4433 155.916 33.692 155.916 32.936V30.78H157.12V32.936C157.12 33.6733 157.255 34.4013 157.526 35.12C157.797 35.8293 158.17 36.464 158.646 37.024C159.122 37.584 159.659 38.004 160.256 38.284L159.542 39.264C158.861 38.9093 158.259 38.396 157.736 37.724C157.213 37.052 156.812 36.282 156.532 35.414C156.261 36.3193 155.86 37.1313 155.328 37.85C154.796 38.5687 154.185 39.11 153.494 39.474L152.738 38.494ZM21.598 51.088V49.646H22.802V51.088H25.84V52.054H18.56V51.088H21.598ZM19.246 54.896C19.246 54.224 19.5167 53.6873 20.058 53.286C20.5993 52.8753 21.3133 52.67 22.2 52.67C23.0867 52.67 23.8007 52.8753 24.342 53.286C24.8833 53.6873 25.154 54.224 25.154 54.896C25.154 55.568 24.8833 56.1093 24.342 56.52C23.8007 56.9213 23.0867 57.122 22.2 57.122C21.3133 57.122 20.5993 56.9213 20.058 56.52C19.5167 56.1093 19.246 55.568 19.246 54.896ZM19.68 61.07C20.436 60.958 21.122 60.7527 21.738 60.454C22.3633 60.1553 22.8533 59.782 23.208 59.334C23.572 58.886 23.754 58.4007 23.754 57.878V57.682H24.958V57.878C24.958 58.4007 25.14 58.886 25.504 59.334C25.868 59.782 26.358 60.1553 26.974 60.454C27.5993 60.7527 28.2947 60.958 29.06 61.07L28.598 62.022C27.6273 61.854 26.7687 61.5553 26.022 61.126C25.2753 60.6967 24.7247 60.16 24.37 59.516C24.006 60.16 23.446 60.6967 22.69 61.126C21.9433 61.5553 21.0893 61.854 20.128 62.022L19.68 61.07ZM20.394 54.896C20.394 55.288 20.5573 55.6007 20.884 55.834C21.22 56.0673 21.6587 56.184 22.2 56.184C22.7413 56.184 23.1753 56.0673 23.502 55.834C23.8287 55.6007 23.992 55.288 23.992 54.896C23.992 54.504 23.8287 54.1913 23.502 53.958C23.1753 53.7247 22.7413 53.608 22.2 53.608C21.6587 53.608 21.22 53.7247 20.884 53.958C20.5573 54.1913 20.394 54.504 20.394 54.896ZM26.89 49.73H28.108V53.272H29.914V54.28H28.108V58.368H26.89V49.73ZM40.0643 49.744V53.748H41.8703V54.756H40.0643V58.984H38.8463V49.744H40.0643ZM30.5163 51.2H33.5543V49.744H34.7583V51.2H37.7963V52.18H30.5163V51.2ZM31.2023 55.134C31.2023 54.6767 31.3237 54.2753 31.5663 53.93C31.8183 53.5753 32.1683 53.3047 32.6163 53.118C33.0643 52.922 33.5777 52.824 34.1563 52.824C34.735 52.824 35.2483 52.922 35.6963 53.118C36.1443 53.3047 36.4897 53.5753 36.7323 53.93C36.9843 54.2753 37.1103 54.6767 37.1103 55.134C37.1103 55.834 36.835 56.394 36.2843 56.814C35.743 57.234 35.0337 57.444 34.1563 57.444C33.279 57.444 32.565 57.234 32.0143 56.814C31.473 56.394 31.2023 55.834 31.2023 55.134ZM32.3503 55.134C32.3503 55.554 32.5137 55.8853 32.8403 56.128C33.1763 56.3707 33.615 56.492 34.1563 56.492C34.6977 56.492 35.1317 56.3707 35.4583 56.128C35.785 55.8853 35.9483 55.554 35.9483 55.134C35.9483 54.714 35.785 54.3827 35.4583 54.14C35.1317 53.8973 34.6977 53.776 34.1563 53.776C33.615 53.776 33.1763 53.8973 32.8403 54.14C32.5137 54.3827 32.3503 54.714 32.3503 55.134ZM32.3643 58.242H33.5683V60.804H40.6103V61.784H32.3643V58.242ZM49.1012 50.892V53.118C49.1012 54.182 49.3252 55.176 49.7732 56.1C50.2212 57.024 50.8466 57.7053 51.6492 58.144L50.9072 59.096C50.3472 58.7787 49.8619 58.3307 49.4512 57.752C49.0499 57.1733 48.7372 56.5107 48.5132 55.764C48.2799 56.576 47.9486 57.2993 47.5192 57.934C47.0992 58.5687 46.5906 59.0633 45.9932 59.418L45.2232 58.522C46.0632 58.0367 46.7212 57.2993 47.1972 56.31C47.6826 55.3207 47.9252 54.28 47.9252 53.188V50.892H49.1012ZM51.9992 49.996H53.1472V54.672H54.7012V49.73H55.8632V62.05H54.7012V55.666H53.1472V61.434H51.9992V49.996ZM62.3035 59.558V57.304H58.7335V53.44H65.9435V51.606H58.7055V50.626H67.1475V54.406H59.9235V56.324H67.4275V57.304H63.5075V59.558H68.5055V60.552H57.3475V59.558H62.3035ZM80.4619 55.96V56.94H75.5759V59.39H74.3439V56.94H69.3039V55.96H80.4619ZM70.5359 52.53C70.5359 52.026 70.7132 51.5873 71.0679 51.214C71.4319 50.8313 71.9405 50.5373 72.5939 50.332C73.2472 50.1267 74.0032 50.024 74.8619 50.024C75.7299 50.024 76.4905 50.1267 77.1439 50.332C77.8065 50.5373 78.3152 50.8313 78.6699 51.214C79.0245 51.5873 79.2019 52.026 79.2019 52.53C79.2019 53.034 79.0245 53.4727 78.6699 53.846C78.3152 54.2193 77.8065 54.5087 77.1439 54.714C76.4905 54.91 75.7299 55.008 74.8619 55.008C74.0032 55.008 73.2472 54.91 72.5939 54.714C71.9405 54.5087 71.4319 54.2193 71.0679 53.846C70.7132 53.4727 70.5359 53.034 70.5359 52.53ZM70.7039 58.172H71.9219V60.79H79.2299V61.784H70.7039V58.172ZM71.8239 52.53C71.8239 52.9873 72.0992 53.3513 72.6499 53.622C73.2099 53.8833 73.9472 54.014 74.8619 54.014C75.7859 54.014 76.5232 53.8833 77.0739 53.622C77.6339 53.3513 77.9139 52.9873 77.9139 52.53C77.9139 52.0633 77.6339 51.6947 77.0739 51.424C76.5232 51.1533 75.7859 51.018 74.8619 51.018C73.9472 51.018 73.2099 51.1533 72.6499 51.424C72.0992 51.6947 71.8239 52.0633 71.8239 52.53ZM90.2968 50.654V56.156H84.7108V50.654H90.2968ZM85.3688 61.056C86.1248 60.9347 86.8108 60.7153 87.4268 60.398C88.0521 60.0807 88.5421 59.6887 88.8968 59.222C89.2608 58.7553 89.4428 58.2467 89.4428 57.696V57.332H90.6468V57.696C90.6468 58.2467 90.8288 58.7553 91.1928 59.222C91.5568 59.6887 92.0468 60.0807 92.6628 60.398C93.2788 60.7153 93.9648 60.9347 94.7208 61.056L94.2448 62.022C93.2928 61.8447 92.4434 61.5273 91.6968 61.07C90.9594 60.6127 90.4088 60.0527 90.0448 59.39C89.6901 60.0527 89.1394 60.6127 88.3928 61.07C87.6461 61.5273 86.7968 61.8447 85.8448 62.022L85.3688 61.056ZM89.0928 55.204V51.634H85.9008V55.204H89.0928ZM92.5788 49.73H93.7968V53.062H95.5888V54.056H93.7968V57.906H92.5788V49.73ZM103.359 50.528V51.494H100.615V51.718C100.615 52.502 100.9 53.2207 101.469 53.874C102.038 54.5273 102.785 54.994 103.709 55.274L103.121 56.226C102.412 56.002 101.786 55.6613 101.245 55.204C100.713 54.7373 100.307 54.196 100.027 53.58C99.7564 54.2427 99.3504 54.826 98.8091 55.33C98.2678 55.8247 97.6331 56.1933 96.9051 56.436L96.2891 55.484C96.9051 55.288 97.4464 54.9987 97.9131 54.616C98.3798 54.2333 98.7391 53.7947 98.9911 53.3C99.2524 52.796 99.3831 52.2687 99.3831 51.718V51.494H96.6251V50.528H103.359ZM98.3051 56.996H99.4811V58.424H105.067V56.996H106.257V61.896H98.3051V56.996ZM105.067 60.902V59.376H99.4811V60.902H105.067ZM105.053 49.744H106.257V56.408H105.053V49.744ZM113.677 49.954C115.059 49.954 116.127 50.136 116.883 50.5C117.649 50.864 118.031 51.3867 118.031 52.068C118.031 52.7587 117.649 53.2907 116.883 53.664C116.118 54.028 115.049 54.21 113.677 54.21C112.305 54.21 111.237 54.028 110.471 53.664C109.706 53.2907 109.323 52.7587 109.323 52.068C109.323 51.3867 109.706 50.864 110.471 50.5C111.237 50.136 112.305 49.954 113.677 49.954ZM108.119 54.994H119.249V55.974H108.119V54.994ZM109.449 56.968H117.821V59.796H110.667V60.986H118.199V61.924H109.491V58.928H116.645V57.906H109.449V56.968ZM110.583 52.068C110.583 52.4693 110.849 52.7773 111.381 52.992C111.923 53.1973 112.688 53.3 113.677 53.3C114.667 53.3 115.432 53.1973 115.973 52.992C116.515 52.7773 116.785 52.4693 116.785 52.068C116.785 51.6853 116.515 51.3867 115.973 51.172C115.432 50.9573 114.667 50.85 113.677 50.85C112.688 50.85 111.923 50.9573 111.381 51.172C110.849 51.3867 110.583 51.6853 110.583 52.068ZM127.978 59.488V56.898H124.324V50.584H125.528V52.74H131.66V50.584H132.864V56.898H129.182V59.488H134.18V60.496H123.022V59.488H127.978ZM131.66 55.918V53.72H125.528V55.918H131.66ZM138.269 50.668C138.829 50.668 139.328 50.8267 139.767 51.144C140.215 51.452 140.574 51.8907 140.845 52.46H143.939V49.716H145.129V62.078H143.939V57.332H140.929C140.658 57.9573 140.294 58.4427 139.837 58.788C139.379 59.124 138.857 59.292 138.269 59.292C137.671 59.292 137.139 59.1147 136.673 58.76C136.206 58.4053 135.842 57.906 135.581 57.262C135.319 56.6087 135.189 55.848 135.189 54.98C135.189 54.112 135.319 53.3513 135.581 52.698C135.842 52.0447 136.206 51.5453 136.673 51.2C137.139 50.8453 137.671 50.668 138.269 50.668ZM136.337 54.98C136.337 55.6333 136.416 56.2027 136.575 56.688C136.743 57.1733 136.971 57.5513 137.261 57.822C137.55 58.0833 137.886 58.214 138.269 58.214C138.651 58.214 138.987 58.0833 139.277 57.822C139.575 57.5513 139.804 57.1733 139.963 56.688C140.131 56.1933 140.215 55.624 140.215 54.98C140.215 54.336 140.131 53.7713 139.963 53.286C139.804 52.7913 139.575 52.4133 139.277 52.152C138.987 51.8907 138.651 51.76 138.269 51.76C137.886 51.76 137.55 51.8907 137.261 52.152C136.971 52.4133 136.743 52.7867 136.575 53.272C136.416 53.7573 136.337 54.3267 136.337 54.98ZM141.181 53.454C141.293 53.9113 141.349 54.42 141.349 54.98C141.349 55.4653 141.307 55.918 141.223 56.338H143.939V53.454H141.181ZM156.693 50.85V51.844H149.539V55.61H156.819V56.59H148.335V50.85H156.693ZM146.935 59.404H158.093V60.398H146.935V59.404ZM169.027 49.716V62.078H167.823V56.87H165.373V55.89H167.823V53.51H165.457V52.516H167.823V49.716H169.027ZM159.311 50.836H164.701V55.302H160.529V58.214C161.5 58.2047 162.373 58.1767 163.147 58.13C163.931 58.074 164.743 57.9807 165.583 57.85L165.681 58.858C164.795 58.998 163.936 59.096 163.105 59.152C162.284 59.1987 161.337 59.222 160.263 59.222H159.325V54.308H163.497V51.83H159.311V50.836ZM173.55 59.488V56.212C173.027 55.9227 172.621 55.5633 172.332 55.134C172.052 54.7047 171.912 54.2147 171.912 53.664C171.912 53.0293 172.103 52.474 172.486 51.998C172.868 51.5127 173.4 51.1393 174.082 50.878C174.763 50.6167 175.538 50.486 176.406 50.486C177.283 50.486 178.058 50.6167 178.73 50.878C179.411 51.1393 179.943 51.5127 180.326 51.998C180.708 52.474 180.9 53.0293 180.9 53.664C180.9 54.2053 180.76 54.6907 180.48 55.12C180.2 55.5493 179.808 55.904 179.304 56.184V59.488H182.006V60.482H170.848V59.488H173.55ZM173.102 53.664C173.102 54.112 173.242 54.504 173.522 54.84C173.802 55.176 174.189 55.4373 174.684 55.624C175.188 55.8013 175.762 55.89 176.406 55.89C177.05 55.89 177.624 55.8013 178.128 55.624C178.632 55.4373 179.024 55.176 179.304 54.84C179.584 54.504 179.724 54.112 179.724 53.664C179.724 53.2253 179.584 52.838 179.304 52.502C179.024 52.166 178.632 51.9047 178.128 51.718C177.624 51.5313 177.05 51.438 176.406 51.438C175.762 51.438 175.188 51.5313 174.684 51.718C174.189 51.9047 173.802 52.166 173.522 52.502C173.242 52.838 173.102 53.2253 173.102 53.664ZM178.086 59.488V56.646C177.563 56.7767 177.003 56.842 176.406 56.842C175.855 56.842 175.304 56.7813 174.754 56.66V59.488H178.086ZM185.1 58.48H184.008L183.798 50.738H185.282L185.1 58.48ZM183.798 60.468C183.798 60.244 183.868 60.062 184.008 59.922C184.157 59.782 184.344 59.712 184.568 59.712C184.783 59.712 184.96 59.782 185.1 59.922C185.24 60.062 185.31 60.244 185.31 60.468C185.31 60.692 185.24 60.874 185.1 61.014C184.96 61.1633 184.783 61.238 184.568 61.238C184.344 61.238 184.157 61.1633 184.008 61.014C183.868 60.874 183.798 60.692 183.798 60.468Z" fill="#454545"/>
<defs>
<filter id="filter0_d_4125_66446" x="0" y="0" width="205" height="86" filterUnits="userSpaceOnUse" color-interpolation-filters="sRGB">
<feFlood flood-opacity="0" result="BackgroundImageFix"/>
<feColorMatrix in="SourceAlpha" type="matrix" values="0 0 0 0 0 0 0 0 0 0 0 0 0 0 0 0 0 0 127 0" result="hardAlpha"/>
<feOffset dy="4"/>
<feGaussianBlur stdDeviation="4"/>
<feComposite in2="hardAlpha" operator="out"/>
<feColorMatrix type="matrix" values="0 0 0 0 0.486275 0 0 0 0 0.415686 0 0 0 0 0.415686 0 0 0 0.25 0"/>
<feBlend mode="normal" in2="BackgroundImageFix" result="effect1_dropShadow_4125_66446"/>
<feBlend mode="normal" in="SourceGraphic" in2="effect1_dropShadow_4125_66446" result="shape"/>
</filter>
</defs>
</svg>
