<svg width="24" height="24" viewBox="0 0 24 24" fill="none" xmlns="http://www.w3.org/2000/svg">
<g clip-path="url(#clip0_4327_9218)">
<path opacity="0.25" d="M24 0H0V24H24V0Z" fill="white"/>
<path opacity="0.25" d="M20.25 21.75V2.25L3.75 2.25V21.75H20.25Z" fill="white"/>
<path opacity="0.25" d="M21 21V3L3 3V21H21Z" fill="white"/>
<path opacity="0.25" d="M21.75 3.75H2.25V20.25H21.75V3.75Z" fill="white"/>
<path d="M19 20L14.3206 15.2541L14.0082 15.4905C13.6644 15.7561 13.2951 15.9895 12.9048 16.1862C11.9867 16.6489 10.9519 16.9091 9.85718 16.9091C6.07003 16.9091 3 13.7955 3 9.95455C3 6.11363 6.06996 3 9.8571 3C13.6442 3 16.7143 6.11363 16.7143 9.95455" stroke="#282828" stroke-width="1.5" stroke-linecap="round" stroke-linejoin="round"/>
<path d="M16.6875 13.5C17.3088 13.5 17.8125 12.9963 17.8125 12.375C17.8125 11.7537 17.3088 11.25 16.6875 11.25C16.0662 11.25 15.5625 11.7537 15.5625 12.375C15.5625 12.9963 16.0662 13.5 16.6875 13.5Z" fill="#EB4351"/>
</g>
<defs>
<clipPath id="clip0_4327_9218">
<rect width="24" height="24" fill="white"/>
</clipPath>
</defs>
</svg>
