<svg width="376" height="88" viewBox="0 0 376 88" fill="none" xmlns="http://www.w3.org/2000/svg">
<rect x="1" width="375" height="88" fill="white" fill-opacity="0.01"/>
<circle cx="28" cy="43" r="28" fill="#F5F5F5"/>
<rect x="8" y="23" width="40" height="40" fill="#FF3434" fill-opacity="0.01"/>
<g clip-path="url(#clip0_4760_13044)">
<path d="M43.9872 42.3832C43.2389 43.4278 42.3272 44.2604 40.8664 44.2604C38.8514 44.2604 37.8809 42.6794 36.9411 41.1496C36.0753 39.7372 35.2555 38.4014 33.6696 38.4014C32.3467 38.4014 31.8435 39.4613 31.1387 41.1879C30.3853 43.0217 29.4506 45.3076 26.4753 45.3076C23.9291 45.3076 22.9663 43.2184 22.1159 41.3769C21.3804 39.7806 20.7445 38.4014 19.2811 38.4014C17.6798 38.4014 16.8626 39.5635 15.9968 40.7945C15.1004 42.0665 14.084 43.5095 12.0843 43.5095C12.0587 43.5095 12.0332 43.5095 12.0077 43.5069C12.0026 43.3384 12 43.1698 12 43.0012C12 42.9144 12 42.8275 12.0026 42.7407C12.1404 34.0237 19.2504 27 28 27C36.2081 27 42.9733 33.1834 43.8927 41.1445C43.9412 41.5531 43.9719 41.9669 43.9872 42.3832Z" fill="#B25A0B"/>
<path d="M44 43.0022C44 51.8393 36.8364 59.001 28 59.001C19.3322 59.0009 12.2759 52.11 12.0077 43.5079C12.0332 43.5105 12.0588 43.5105 12.0843 43.5105C14.084 43.5105 15.1004 42.0674 15.9968 40.7955C16.8626 39.5644 17.6798 38.4023 19.2811 38.4023C20.7445 38.4023 21.3804 39.7815 22.1159 41.3779C22.9663 43.2194 23.9292 45.3086 26.4754 45.3086C29.4506 45.3086 30.3853 43.0227 31.1387 41.1888C31.8436 39.4623 32.3467 38.4023 33.6696 38.4023C35.2555 38.4023 36.0754 39.7381 36.9411 41.1505C37.8809 42.6804 38.8514 44.2614 40.8664 44.2614C42.3272 44.2614 43.239 43.4288 43.9872 42.3842C43.9949 42.5885 44 42.7954 44 43.0022Z" fill="#FFA245"/>
<path d="M15.7558 49.0778C16.5774 49.0778 16.5788 47.8008 15.7558 47.8008C14.9341 47.8008 14.9328 49.0778 15.7558 49.0778Z" fill="#EF8729"/>
<path d="M26.5663 56.2634C27.388 56.2634 27.3893 54.9863 26.5663 54.9863C25.7447 54.9863 25.7433 56.2634 26.5663 56.2634Z" fill="#EF8729"/>
<path d="M35.6759 44.861C36.4976 44.861 36.499 43.584 35.6759 43.584C34.8543 43.584 34.8529 44.861 35.6759 44.861Z" fill="#EF8729"/>
<path d="M25.9267 50.0837C26.7483 50.0837 26.7497 48.8066 25.9267 48.8066C25.105 48.8066 25.1037 50.0837 25.9267 50.0837Z" fill="#EF8729"/>
<path d="M20.1083 54.7655C20.5191 54.7655 20.5198 54.127 20.1083 54.127C19.6975 54.127 19.6968 54.7655 20.1083 54.7655Z" fill="#EF8729"/>
<path d="M19.4811 43.736C20.3028 43.736 20.3041 42.459 19.4811 42.459C18.6595 42.459 18.6581 43.736 19.4811 43.736Z" fill="#EF8729"/>
<path d="M38.6141 52.1716C39.4357 52.1716 39.4371 50.8945 38.6141 50.8945C37.7924 50.8945 37.791 52.1716 38.6141 52.1716Z" fill="#EF8729"/>
<path d="M32.3934 50.0837C33.215 50.0837 33.2164 48.8066 32.3934 48.8066C31.5717 48.8066 31.5703 50.0837 32.3934 50.0837Z" fill="#EF8729"/>
<path d="M20.7431 31.8946L19.919 32.9986C19.8243 33.1256 19.8504 33.3053 19.9773 33.4001L20.4558 33.7573C20.5827 33.8521 20.7625 33.826 20.8573 33.699L21.6813 32.595C21.7761 32.468 21.75 32.2882 21.623 32.1934L21.1446 31.8363C21.0176 31.7415 20.8379 31.7676 20.7431 31.8946Z" fill="#54820C"/>
<path d="M24.1844 37.8891L23.5703 38.2437C23.4074 38.3378 23.3515 38.5462 23.4456 38.7092L24.2637 40.1262C24.3578 40.2892 24.5662 40.345 24.7291 40.2509L25.3432 39.8963C25.5062 39.8022 25.562 39.5938 25.4679 39.4309L24.6499 38.0138C24.5558 37.8509 24.3474 37.795 24.1844 37.8891Z" fill="#54820C"/>
<path d="M34.3137 32.1912L33.4443 33.2599C33.3444 33.3828 33.3629 33.5635 33.4858 33.6635L33.949 34.0403C34.0719 34.1403 34.2525 34.1217 34.3525 33.9988L35.2219 32.9301C35.3219 32.8072 35.3033 32.6265 35.1804 32.5265L34.7173 32.1497C34.5944 32.0497 34.4137 32.0683 34.3137 32.1912Z" fill="#54820C"/>
<path d="M39.3933 39.5255L38.6517 40.4371C38.5665 40.542 38.5823 40.6961 38.6871 40.7814L39.0822 41.1028C39.187 41.1881 39.3411 41.1723 39.4264 41.0674L40.168 40.1559C40.2533 40.051 40.2375 39.8969 40.1326 39.8116L39.7376 39.4902C39.6327 39.4049 39.4786 39.4207 39.3933 39.5255Z" fill="#54820C"/>
<path d="M27.2724 27.9702L26.8183 28.5283C26.7661 28.5925 26.7758 28.6869 26.84 28.7391L27.0819 28.9359C27.146 28.9881 27.2404 28.9784 27.2926 28.9142L27.7467 28.3561C27.7989 28.2919 27.7892 28.1975 27.725 28.1453L27.4831 27.9485C27.4189 27.8963 27.3246 27.906 27.2724 27.9702Z" fill="#54820C"/>
<path d="M18.6378 33.4102H18.2722C18.1752 33.4102 18.0966 33.4888 18.0966 33.5858V34.4294C18.0966 34.5264 18.1752 34.605 18.2722 34.605H18.6378C18.7348 34.605 18.8134 34.5264 18.8134 34.4294V33.5858C18.8134 33.4888 18.7348 33.4102 18.6378 33.4102Z" fill="#54820C"/>
<path d="M29.1516 33.8445L29.012 34.6764C28.9959 34.772 29.0605 34.8626 29.1561 34.8787L29.5167 34.9392C29.6123 34.9552 29.7029 34.8907 29.719 34.795L29.8585 33.9631C29.8746 33.8674 29.8101 33.7769 29.7144 33.7608L29.3539 33.7003C29.2582 33.6842 29.1676 33.7488 29.1516 33.8445Z" fill="#54820C"/>
</g>
<circle cx="104" cy="43" r="28" fill="#F5F5F5"/>
<rect x="84" y="23" width="40" height="40" fill="#FF3434" fill-opacity="0.01"/>
<g clip-path="url(#clip1_4760_13044)">
<path d="M103.897 45.1877C103.364 45.1877 102.83 44.9841 102.423 44.577C101.608 43.7624 101.608 42.4423 102.423 41.6277L111.288 32.7629C112.102 31.9488 113.422 31.9488 114.237 32.7629C115.051 33.5775 115.051 34.8976 114.237 35.7122L105.372 44.577C104.965 44.9841 104.431 45.1877 103.897 45.1877Z" fill="#DDDDDD"/>
<path d="M117.915 36.3232H110.677V29.0853C110.677 27.9335 111.611 27 112.762 27C113.914 27 114.848 27.9335 114.848 29.0853V32.1525H117.915C119.066 32.1525 120 33.086 120 34.2378C120 35.3897 119.066 36.3232 117.915 36.3232Z" fill="#DDDDDD"/>
<path d="M112.497 40.7052L107.35 53.1528C105.661 56.6121 102.206 58.9417 98.3567 58.9989C95.7164 59.0381 93.0465 58.0628 90.9919 56.0081C88.9372 53.9535 87.9619 51.2836 88.0011 48.6433C88.0583 44.7942 90.3879 41.339 93.8472 39.6501L106.295 34.503C107.03 34.1439 107.913 34.2914 108.492 34.8703L112.13 38.5081C112.709 39.0869 112.856 39.9695 112.497 40.7052Z" fill="#FFA245"/>
</g>
<circle cx="188" cy="43" r="36" fill="#F5F5F5"/>
<rect x="160" y="15" width="56" height="56" fill="#FF3434" fill-opacity="0.01"/>
<g clip-path="url(#clip2_4760_13044)">
<path d="M194.045 25.3379H189.431C188.997 25.3379 188.646 25.6844 188.646 26.1118V46.1894C188.646 46.6168 188.997 46.9633 189.431 46.9633H194.045C194.479 46.9633 194.83 46.6168 194.83 46.1894V26.1118C194.83 25.6844 194.479 25.3379 194.045 25.3379Z" fill="#FFBC50"/>
<path d="M174.212 25.2781L169.652 25.9769C169.223 26.0425 168.93 26.4381 168.997 26.8604L172.124 46.6999C172.19 47.1223 172.592 47.4114 173.02 47.3458L177.58 46.6471C178.008 46.5814 178.301 46.1859 178.235 45.7635L175.108 25.924C175.041 25.5017 174.64 25.2125 174.212 25.2781Z" fill="#FF9C00"/>
<path d="M181.846 22H177.231C176.798 22 176.446 22.3465 176.446 22.7739V42.8516C176.446 43.279 176.798 43.6254 177.231 43.6254H181.846C182.279 43.6254 182.631 43.279 182.631 42.8516V22.7739C182.631 22.3465 182.279 22 181.846 22Z" fill="#FFBC50"/>
<path d="M185.706 25.2731L181.236 26.4018C180.816 26.5078 180.563 26.9294 180.67 27.3435L185.722 46.7935C185.83 47.2076 186.257 47.4573 186.677 47.3512L191.148 46.2225C191.568 46.1165 191.821 45.6949 191.713 45.2808L186.662 25.8308C186.554 25.4167 186.126 25.167 185.706 25.2731Z" fill="#FF9C00"/>
<path d="M203.407 22.168H198.793C198.359 22.168 198.008 22.5145 198.008 22.9419V43.0195C198.008 43.4469 198.359 43.7934 198.793 43.7934H203.407C203.841 43.7934 204.192 43.4469 204.192 43.0195V22.9419C204.192 22.5145 203.841 22.168 203.407 22.168Z" fill="#FFBC50"/>
<path d="M198.488 28.9126L193.887 28.5683C193.454 28.536 193.077 28.8553 193.044 29.2814L191.504 49.3015C191.471 49.7277 191.795 50.0994 192.227 50.1318L196.828 50.4761C197.261 50.5084 197.638 50.1891 197.67 49.7629L199.211 29.7428C199.244 29.3167 198.92 28.945 198.488 28.9126Z" fill="#FF9C00"/>
<path d="M203.078 34.6465C202.056 34.6465 201.115 35.196 200.63 36.0832C199.22 38.663 194.099 40.5746 187.998 40.5746C181.897 40.5746 176.777 38.663 175.367 36.0832C174.882 35.196 173.941 34.6465 172.919 34.6465H171.189C169.478 34.6465 168.17 36.1507 168.432 37.8178L172.172 61.6696C172.382 63.0107 173.553 64.0003 174.929 64.0003H201.068C202.444 64.0003 203.615 63.0107 203.825 61.6696L207.565 37.8178C207.826 36.1507 206.518 34.6465 204.808 34.6465H203.078Z" fill="#F23D2A"/>
</g>
<circle cx="272" cy="43" r="28" fill="#F5F5F5"/>
<rect x="252" y="23" width="40" height="40" fill="#FF3434" fill-opacity="0.01"/>
<g clip-path="url(#clip3_4760_13044)">
<path d="M287.339 48.0078C283.046 51.203 277.741 53.0905 271.999 53.0905C266.266 53.0905 260.968 51.2093 256.681 48.0235C256.815 47.7588 256.969 47.4941 257.144 47.2326L258.456 45.1339C258.859 45.3073 259.299 45.4018 259.762 45.4018C261.608 45.4018 263.101 43.8956 263.101 42.0364C263.101 41.0312 262.667 40.13 261.974 39.5155L269.019 28.2597C270.684 26.5801 273.38 26.5801 275.045 28.2597L277.904 32.8288C276.739 33.3519 275.926 34.5304 275.926 35.9011C275.926 37.7603 277.423 39.2666 279.266 39.2666C280.094 39.2666 280.85 38.9609 281.431 38.4599L286.92 47.2326C287.077 47.491 287.217 47.7494 287.339 48.0078Z" fill="#FFBC50"/>
<path d="M286.167 53.9193C282.065 56.5032 277.222 58 272.033 58C266.84 58 261.998 56.5032 257.899 53.9193C255.815 52.6022 255.506 50.3081 256.68 48.0236C260.967 51.2094 266.265 53.0906 271.998 53.0906C277.741 53.0906 283.045 51.2031 287.338 48.0078C288.435 50.2861 288.25 52.6022 286.167 53.9193Z" fill="#F49037"/>
<path d="M271.404 50.8638C273.891 50.8638 275.907 48.8302 275.907 46.3216C275.907 43.8129 273.891 41.7793 271.404 41.7793C268.916 41.7793 266.9 43.8129 266.9 46.3216C266.9 48.8302 268.916 50.8638 271.404 50.8638Z" fill="#F23D2A"/>
<path d="M281.431 38.4592C280.85 38.9602 280.094 39.2659 279.266 39.2659C277.423 39.2659 275.926 37.7596 275.926 35.9005C275.926 34.5297 276.739 33.3512 277.904 32.8281L281.431 38.4592Z" fill="#F23D2A"/>
<path d="M263.101 42.0365C263.101 43.8957 261.608 45.4019 259.762 45.4019C259.299 45.4019 258.859 45.3074 258.456 45.1341L261.974 39.5156C262.667 40.1301 263.101 41.0313 263.101 42.0365Z" fill="#F23D2A"/>
<path d="M267.725 35.6858L266.844 36.7773C266.7 36.9564 266.727 37.2197 266.904 37.3653L267.804 38.104C267.982 38.2497 268.243 38.2226 268.387 38.0435L269.268 36.952C269.412 36.773 269.385 36.5097 269.208 36.364L268.308 35.6254C268.13 35.4797 267.869 35.5068 267.725 35.6858Z" fill="#54820C"/>
<path d="M279.092 42.0537L278.025 43.9177C277.816 44.2835 278.077 44.7408 278.496 44.7408H280.63C281.049 44.7408 281.311 44.2835 281.101 43.9177L280.034 42.0537C279.825 41.6878 279.302 41.6878 279.092 42.0537Z" fill="#54820C"/>
<path d="M264.123 50.1286C264.687 50.1286 265.144 49.6674 265.144 49.0985C265.144 48.5296 264.687 48.0684 264.123 48.0684C263.559 48.0684 263.101 48.5296 263.101 49.0985C263.101 49.6674 263.559 50.1286 264.123 50.1286Z" fill="#54820C"/>
<path d="M274.353 31.6482C274.782 31.6482 275.129 31.298 275.129 30.8661C275.129 30.4341 274.782 30.084 274.353 30.084C273.925 30.084 273.578 30.4341 273.578 30.8661C273.578 31.298 273.925 31.6482 274.353 31.6482Z" fill="#54820C"/>
</g>
<circle cx="348" cy="43" r="28" fill="#F5F5F5"/>
<rect x="328" y="23" width="40" height="40" fill="#FF3434" fill-opacity="0.01"/>
<g clip-path="url(#clip4_4760_13044)">
<path d="M361.557 40.7842H334.443C333.094 40.7842 332 39.6739 332 38.3043V37.5322C332 33.9246 334.882 31 338.436 31H357.564C361.118 31 364 33.9246 364 37.5322V38.3042C364 39.6739 362.906 40.7842 361.557 40.7842Z" fill="#F49037"/>
<path d="M334.443 46.2148H361.557C362.906 46.2148 364 47.3252 364 48.6948V49.4668C364 53.0745 361.118 55.999 357.564 55.999H338.436C334.882 55.999 332 53.0745 332 49.4668V48.6948C332 47.3252 333.094 46.2148 334.443 46.2148Z" fill="#F49037"/>
<path d="M361.278 40.7852H334.403C333.775 40.7852 333.265 41.302 333.265 41.9395V45.0624C333.265 45.6999 333.775 46.2168 334.403 46.2168H361.278C361.906 46.2168 362.415 45.6999 362.415 45.0624V41.9395C362.415 41.302 361.906 40.7852 361.278 40.7852Z" fill="#B25A0B"/>
<path d="M334.831 46.2148L347.84 54.7548L359.948 46.2148H334.831Z" fill="#FFBC00"/>
<path d="M338.768 33.2744C339.556 33.2744 339.558 32.0312 338.768 32.0312C337.98 32.0312 337.979 33.2744 338.768 33.2744Z" fill="#FFBC50"/>
<path d="M351.702 34.0576C352.49 34.0576 352.491 32.8145 351.702 32.8145C350.914 32.8145 350.912 34.0576 351.702 34.0576Z" fill="#FFBC50"/>
<path d="M348.123 36.8018C348.912 36.8018 348.913 35.5586 348.123 35.5586C347.335 35.5586 347.334 36.8018 348.123 36.8018Z" fill="#FFBC50"/>
<path d="M353.615 35.9014C354.403 35.9014 354.404 34.6582 353.615 34.6582C352.827 34.6582 352.825 35.9014 353.615 35.9014Z" fill="#FFBC50"/>
<path d="M360.114 35.4697C360.902 35.4697 360.903 34.2266 360.114 34.2266C359.326 34.2266 359.325 35.4697 360.114 35.4697Z" fill="#FFBC50"/>
<path d="M342.356 35.9014C343.144 35.9014 343.146 34.6582 342.356 34.6582C341.568 34.6582 341.567 35.9014 342.356 35.9014Z" fill="#FFBC50"/>
<path d="M337.095 37.7803C337.883 37.7803 337.884 36.5371 337.095 36.5371C336.307 36.5371 336.305 37.7803 337.095 37.7803Z" fill="#FFBC50"/>
</g>
<rect x="1" width="375" height="88" fill="url(#paint0_linear_4760_13044)"/>
<defs>
<linearGradient id="paint0_linear_4760_13044" x1="-40.5" y1="44" x2="422.5" y2="44" gradientUnits="userSpaceOnUse">
<stop offset="0.1" stop-color="white"/>
<stop offset="0.3" stop-color="white" stop-opacity="0"/>
<stop offset="0.7" stop-color="white" stop-opacity="0"/>
<stop offset="0.9" stop-color="white"/>
</linearGradient>
<clipPath id="clip0_4760_13044">
<rect width="32" height="32" fill="white" transform="translate(12 27)"/>
</clipPath>
<clipPath id="clip1_4760_13044">
<rect width="32" height="32" fill="white" transform="translate(88 27)"/>
</clipPath>
<clipPath id="clip2_4760_13044">
<rect width="39.2" height="42" fill="white" transform="translate(168.398 22)"/>
</clipPath>
<clipPath id="clip3_4760_13044">
<rect width="32" height="31" fill="white" transform="translate(256 27)"/>
</clipPath>
<clipPath id="clip4_4760_13044">
<rect width="32" height="25" fill="white" transform="translate(332 31)"/>
</clipPath>
</defs>
</svg>
