<svg width="48" height="48" viewBox="0 0 48 48" fill="none" xmlns="http://www.w3.org/2000/svg">
<path d="M39 8.11765V30.4588C39 30.7341 38.9483 31.0094 38.845 31.2582H30.7849C30.2167 31.2582 29.7516 31.7347 29.7516 32.3171V41.7724C29.4674 41.9206 29.1472 42 28.8216 42H10.0667C8.9299 42 8 41.0524 8 39.8824V8.11765C8 6.94765 8.9299 6 10.0667 6H36.9333C38.0752 6 39 6.94765 39 8.11765Z" fill="#FFBFC9"/>
<path d="M39 31C38.9284 31.2104 38.8159 31.4043 38.6829 31.5816L30.5728 41.5347C30.4091 41.7286 30.2148 41.8836 30 42V32.1077C30 31.4984 30.4603 31 31.0227 31H39Z" fill="#9E9E9E"/>
<rect x="13" y="12" width="21" height="2" rx="1" fill="white"/>
<rect x="13" y="17" width="12" height="2" rx="1" fill="white"/>
<rect x="13" y="22" width="7" height="2" rx="1" fill="white"/>
<rect x="27" y="28" width="16" height="16" rx="8" fill="#EB4351"/>
<path d="M35.9162 31L35.7605 37.9168H34.2277L34.0721 31H35.9162ZM34.0002 39.854C33.9883 39.2265 34.4433 38.7149 35.0061 38.7217C35.539 38.7149 36 39.2265 36 39.854C36 40.4884 35.539 41 35.0061 41C34.4433 41 33.9883 40.4884 34.0002 39.854Z" fill="white"/>
</svg>
