<svg width="40" height="40" viewBox="0 0 40 40" fill="none" xmlns="http://www.w3.org/2000/svg">
<path d="M20 40C31.0457 40 40 31.0457 40 20C40 8.9543 31.0457 0 20 0C8.9543 0 0 8.9543 0 20C0 31.0457 8.9543 40 20 40Z" fill="#D9D9D9"/>
<path d="M13 25.668H27.6667" stroke="white" stroke-linecap="round" stroke-linejoin="round"/>
<path d="M11.667 15H18.3337" stroke="white" stroke-linecap="round" stroke-linejoin="round"/>
<path d="M22.334 15H29.0007" stroke="white" stroke-linecap="round" stroke-linejoin="round"/>
<path d="M15 21.668C16.1046 21.668 17 20.7725 17 19.668C17 18.5634 16.1046 17.668 15 17.668C13.8954 17.668 13 18.5634 13 19.668C13 20.7725 13.8954 21.668 15 21.668Z" fill="white"/>
<path d="M25.667 21.668C26.7716 21.668 27.667 20.7725 27.667 19.668C27.667 18.5634 26.7716 17.668 25.667 17.668C24.5624 17.668 23.667 18.5634 23.667 19.668C23.667 20.7725 24.5624 21.668 25.667 21.668Z" fill="white"/>
</svg>
