<svg width="267" height="108" viewBox="0 0 267 108" fill="none" xmlns="http://www.w3.org/2000/svg">
<path d="M2.61719 41V12.7188H21.0156V16.9766H7.69531V24.7109H20.0391V28.9688H7.69531V36.7031H21.0938V41H2.61719ZM24.8641 48.9688V19.7891H29.7469V23.2656H30.0594C30.8406 21.7422 32.4031 19.5156 36.1531 19.5156C41.0359 19.5156 44.9031 23.3438 44.9031 30.4141C44.9031 37.4062 41.1531 41.3906 36.1531 41.3906C32.4813 41.3906 30.8406 39.2031 30.0594 37.6406H29.8641V48.9688H24.8641ZM29.7469 30.375C29.7469 34.5156 31.5438 37.2891 34.7859 37.2891C38.0672 37.2891 39.825 34.3984 39.825 30.375C39.825 26.4297 38.1063 23.5781 34.7859 23.5781C31.5438 23.5781 29.7469 26.2734 29.7469 30.375ZM48.0094 41V19.7891H53.0094V41H48.0094ZM50.5484 16.7812C48.9859 16.7812 47.6578 15.5703 47.6578 14.0469C47.6578 12.5625 48.9859 11.3516 50.5484 11.3516C52.15 11.3516 53.4391 12.5625 53.4391 14.0469C53.4391 15.5703 52.15 16.7812 50.5484 16.7812ZM66.2328 41.4297C59.9047 41.4297 56.0766 36.8984 56.0766 30.4922C56.0766 24.0078 60.0219 19.5156 66.2328 19.5156C71.3891 19.5156 74.9828 22.5234 75.3344 27.0938H70.5687C70.1781 25.0625 68.6937 23.5 66.2719 23.5C63.1859 23.5 61.1156 26.1172 61.1156 30.375C61.1156 34.75 63.1469 37.3672 66.2719 37.3672C68.4984 37.3672 70.1391 36.0781 70.5687 33.7734H75.3344C74.9437 38.2656 71.5453 41.4297 66.2328 41.4297ZM91.8391 32.0938V19.7891H96.8V41H91.9953V37.25H91.7609C90.7844 39.5938 88.5578 41.2734 85.3938 41.2734C81.2141 41.2734 78.3234 38.3828 78.2844 33.3047V19.7891H83.2844V32.5234C83.2844 35.2188 84.8859 36.9375 87.3078 36.9375C89.4953 36.9375 91.8391 35.3359 91.8391 32.0938ZM100.766 41V19.7891H105.609V23.3047H105.844C106.586 20.8828 108.656 19.4766 111.078 19.4766C111.625 19.4766 112.406 19.5156 112.875 19.5938V24.2031C112.445 24.0469 111.391 23.8906 110.57 23.8906C107.797 23.8906 105.766 25.8047 105.766 28.5V41H100.766ZM123.755 41.4297C117.348 41.4297 113.442 37.1719 113.442 30.5312C113.442 23.9688 117.427 19.5156 123.481 19.5156C128.677 19.5156 133.169 22.7578 133.169 30.2188V31.7812H118.364C118.423 35.3945 120.552 37.5234 123.794 37.5234C125.981 37.5234 127.466 36.5859 128.091 35.3359H132.973C132.075 39.0078 128.677 41.4297 123.755 41.4297ZM118.403 28.3828H128.403C128.364 25.4922 126.45 23.3828 123.559 23.3828C120.552 23.3828 118.559 25.668 118.403 28.3828ZM135.259 35.0234C135.259 30.2578 139.205 28.8516 143.15 28.6172C144.615 28.5195 147.662 28.3438 148.58 28.3047V26.625C148.58 24.5156 147.212 23.3047 144.752 23.3047C142.525 23.3047 141.158 24.3203 140.767 25.8438H135.962C136.314 22.25 139.556 19.5156 144.869 19.5156C148.892 19.5156 153.541 21.1562 153.541 26.8203V41H148.775V38.0703H148.619C147.681 39.8672 145.689 41.4297 142.369 41.4297C138.306 41.4297 135.259 39.2031 135.259 35.0234ZM140.064 34.9844C140.064 36.8203 141.548 37.7578 143.658 37.7578C146.666 37.7578 148.619 35.7656 148.619 33.3828V31.625L143.931 31.9375C141.548 32.1328 140.064 33.1094 140.064 34.9844ZM162.428 28.5781V41H157.428V19.7891H162.194V23.3828H162.467C163.444 21 165.592 19.5156 168.756 19.5156C173.17 19.5156 176.061 22.4062 176.022 27.4844V41H171.061V28.2656C171.061 25.4141 169.538 23.7344 166.92 23.7344C164.264 23.7344 162.428 25.4922 162.428 28.5781Z" fill="white"/>
<path d="M183.073 41.3125C181.394 41.3125 180.027 39.9453 180.027 38.2656C180.027 36.625 181.394 35.2578 183.073 35.2578C184.675 35.2578 186.081 36.625 186.081 38.2656C186.081 39.9453 184.675 41.3125 183.073 41.3125Z" fill="#EB4351"/>
<path d="M18.0078 74.4922C17.7539 72.0508 15.7031 70.6445 12.6562 70.6641C9.43359 70.6445 7.51953 72.207 7.5 74.3359C7.48047 76.7188 10 77.6953 12.3438 78.2422L15 78.9453C19.2188 79.9219 23.2812 82.1484 23.2812 87.0703C23.2812 92.0312 19.3555 95.4297 12.5781 95.4297C5.99609 95.4297 1.81641 92.2656 1.60156 86.6797H6.60156C6.83594 89.6289 9.31641 91.0742 12.5391 91.0938C15.8789 91.0742 18.1836 89.4531 18.2031 87.0312C18.1836 84.8047 16.1523 83.8672 13.0859 83.0859L9.88281 82.2656C5.23438 81.0547 2.34375 78.7109 2.34375 74.6484C2.34375 69.6484 6.77734 66.3281 12.7344 66.3281C18.7305 66.3281 22.8125 69.707 22.8906 74.4922H18.0078ZM35.7234 95.4297C29.532 95.4297 25.5672 91.0352 25.5672 84.4922C25.5672 77.8906 29.532 73.5156 35.7234 73.5156C41.9344 73.5156 45.8992 77.8906 45.8797 84.4922C45.8992 91.0352 41.9344 95.4297 35.7234 95.4297ZM30.6063 84.4531C30.6063 88.3398 32.3055 91.4453 35.7625 91.4453C39.1609 91.4453 40.8602 88.3398 40.8406 84.4531C40.8602 80.5664 39.1609 77.4414 35.7625 77.4609C32.3055 77.4414 30.6063 80.5664 30.6063 84.4531ZM48.9469 95V73.7891H53.7125V77.3828H53.9859C54.8648 74.9609 56.9938 73.5156 59.8063 73.5156C62.6773 73.5156 64.7477 74.9805 65.5484 77.3828H65.7828C66.7008 75.0391 69.0641 73.5156 72.15 73.5156C76.0367 73.5156 78.7711 76.0156 78.7516 80.7422V95H73.7906V81.5234C73.7906 78.8867 72.1891 77.6953 70.1578 77.6953C67.7164 77.6953 66.2906 79.3555 66.2906 81.7578V95H61.4469V81.3281C61.4273 79.1211 59.982 77.6953 57.8531 77.6953C55.7047 77.6953 53.9469 79.4727 53.9469 82.1094V95H48.9469ZM82.7172 95V73.7891H87.4828V77.3828H87.7562C88.6352 74.9609 90.7641 73.5156 93.5766 73.5156C96.4477 73.5156 98.518 74.9805 99.3187 77.3828H99.5531C100.471 75.0391 102.834 73.5156 105.92 73.5156C109.807 73.5156 112.541 76.0156 112.522 80.7422V95H107.561V81.5234C107.561 78.8867 105.959 77.6953 103.928 77.6953C101.487 77.6953 100.061 79.3555 100.061 81.7578V95H95.2172V81.3281C95.1977 79.1211 93.7523 77.6953 91.6234 77.6953C89.475 77.6953 87.7172 79.4727 87.7172 82.1094V95H82.7172ZM125.902 95.4297C119.515 95.4297 115.589 91.1719 115.589 84.5312C115.589 77.9688 119.573 73.5156 125.628 73.5156C130.823 73.5156 135.316 76.7773 135.316 84.2188V85.7812H120.511C120.589 89.3945 122.718 91.543 125.941 91.5234C128.128 91.543 129.593 90.6055 130.238 89.3359H135.12C134.222 93.0078 130.823 95.4297 125.902 95.4297ZM120.53 82.3828H130.55C130.53 79.4922 128.577 77.3828 125.706 77.3828C122.718 77.3828 120.706 79.6875 120.53 82.3828ZM143.383 66.7188V95H138.383V66.7188H143.383ZM147.348 95V73.7891H152.348V95H147.348ZM146.997 68.0469C146.997 66.5625 148.305 65.3516 149.887 65.3516C151.47 65.3516 152.778 66.5625 152.778 68.0469C152.778 69.5508 151.47 70.7617 149.887 70.7812C148.305 70.7617 146.997 69.5508 146.997 68.0469ZM165.728 95.4297C159.341 95.4297 155.416 91.1719 155.416 84.5312C155.416 77.9688 159.4 73.5156 165.455 73.5156C170.65 73.5156 175.142 76.7773 175.142 84.2188V85.7812H160.337C160.416 89.3945 162.545 91.543 165.767 91.5234C167.955 91.543 169.42 90.6055 170.064 89.3359H174.947C174.048 93.0078 170.65 95.4297 165.728 95.4297ZM160.357 82.3828H170.377C170.357 79.4922 168.404 77.3828 165.533 77.3828C162.545 77.3828 160.533 79.6875 160.357 82.3828ZM178.209 95V73.7891H183.053V77.3047H183.288C184.049 74.8633 186.08 73.4766 188.522 73.4766C189.069 73.4766 189.85 73.5352 190.319 73.5938V78.2031C189.87 78.0469 188.834 77.9102 188.014 77.8906C185.241 77.9102 183.209 79.8242 183.209 82.5V95H178.209Z" fill="white"/>
<circle cx="221.5" cy="80.5" r="18.5" fill="#EB4351"/>
<circle cx="248.5" cy="80.5" r="18.5" fill="#EB4351"/>
<path d="M220.344 87.1562C218.031 87.1641 216.609 85.7969 216.609 84C216.609 82.6641 217.469 81.8516 218.734 80.9766C218.086 80.1719 217.578 79.3438 217.578 78.3438C217.578 76.7344 218.75 75.5469 220.531 75.5469C222.312 75.5469 223.414 76.7266 223.406 78.1094C223.414 79.1875 222.852 80.0078 221.906 80.6875L221.188 81.2188L223.258 83.6484C223.555 83.0859 223.734 82.4219 223.734 81.6719H225.453C225.445 83.2266 225.016 84.3281 224.469 85.0625L226.125 87H223.969L223.242 86.1719C222.438 86.8516 221.336 87.1641 220.344 87.1562ZM218.562 83.9062C218.562 84.8047 219.289 85.5234 220.406 85.5312C221.008 85.5312 221.625 85.3125 222.156 84.9297L219.805 82.2266L219.625 82.3594C218.859 82.9219 218.562 83.5156 218.562 83.9062ZM219.344 78.375C219.352 78.8906 219.695 79.4141 220.164 80L220.812 79.5625C221.406 79.1797 221.719 78.7734 221.719 78.2031C221.719 77.7109 221.281 77.1797 220.562 77.1875C219.844 77.1797 219.352 77.7578 219.344 78.375Z" fill="white"/>
<path d="M238.047 75.6875H240.547L243.906 83.9062H244.047L247.406 75.6875H249.906V87H247.953V79.2188H247.844L244.703 86.9688H243.25L240.109 79.1875H240.016V87H238.047V75.6875ZM255.352 87.1719C252.797 87.1719 251.227 85.4688 251.227 82.8125C251.227 80.1875 252.821 78.4062 255.243 78.4062C257.321 78.4062 259.118 79.7109 259.118 82.6875V83.3125H253.196C253.227 84.7578 254.078 85.6172 255.368 85.6094C256.243 85.6172 256.828 85.2422 257.086 84.7344H259.039C258.68 86.2031 257.321 87.1719 255.352 87.1719ZM253.203 81.9531H257.211C257.203 80.7969 256.422 79.9531 255.274 79.9531C254.078 79.9531 253.274 80.875 253.203 81.9531Z" fill="white"/>
</svg>
