<svg width="50" height="50" viewBox="0 0 50 50" fill="none" xmlns="http://www.w3.org/2000/svg">
<path d="M43 7.39153V31.9215C43 32.2238 42.9433 32.5261 42.83 32.7993H33.9899C33.3667 32.7993 32.8566 33.3224 32.8566 33.9618V44.3435C32.5449 44.5063 32.1937 44.5934 31.8366 44.5934H11.2667C10.0199 44.5934 9 43.5529 9 42.2683V7.39153C9 6.1069 10.0199 5.06641 11.2667 5.06641H40.7333C41.9857 5.06641 43 6.1069 43 7.39153Z" fill="#D9D9D9"/>
<path d="M42.8289 32.7988C42.7495 33.0197 42.6248 33.2232 42.4775 33.4092L33.4902 43.8548C33.3088 44.0583 33.0935 44.2209 32.8555 44.3431V33.9614C32.8555 33.3219 33.3655 32.7988 33.9888 32.7988H42.8289Z" fill="#9E9E9E"/>
<rect x="14.2305" y="11.6543" width="23.5385" height="2.63513" rx="1.31757" fill="white"/>
<rect x="14.2305" y="16.9238" width="13.0769" height="2.63513" rx="1.31757" fill="white"/>
<rect x="14.2305" y="22.1953" width="7.84615" height="2.63513" rx="1.31757" fill="white"/>
<rect y="32.4316" width="17.3333" height="17.5676" rx="8.66667" fill="#9E9E9E"/>
<path d="M9.58293 36.2148L9.42725 43.1316H7.8945L7.73883 36.2148H9.58293ZM7.66698 45.0689C7.655 44.4413 8.11004 43.9297 8.67285 43.9365C9.20572 43.9297 9.66675 44.4413 9.66675 45.0689C9.66675 45.7032 9.20572 46.2148 8.67285 46.2148C8.11004 46.2148 7.655 45.7032 7.66698 45.0689Z" fill="white"/>
</svg>
