<svg width="40" height="40" viewBox="0 0 40 40" fill="none" xmlns="http://www.w3.org/2000/svg">
<path d="M20 40C31.0457 40 40 31.0457 40 20C40 8.9543 31.0457 0 20 0C8.9543 0 0 8.9543 0 20C0 31.0457 8.9543 40 20 40Z" fill="#EB4351"/>
<path d="M16 20C17.1046 20 18 19.1046 18 18C18 16.8954 17.1046 16 16 16C14.8954 16 14 16.8954 14 18C14 19.1046 14.8954 20 16 20Z" fill="white"/>
<path d="M24 20C25.1046 20 26 19.1046 26 18C26 16.8954 25.1046 16 24 16C22.8954 16 22 16.8954 22 18C22 19.1046 22.8954 20 24 20Z" fill="white"/>
<path d="M12.6663 26.668C14.0697 24.2849 16.8272 22.668 19.9997 22.668C23.1722 22.668 25.9297 24.2849 27.333 26.668" stroke="white" stroke-linecap="round" stroke-linejoin="round"/>
<path d="M30 13.334C28.0864 14.9227 24.3261 16.0007 20 16.0007C15.6739 16.0007 11.9136 14.9227 10 13.334" stroke="white" stroke-linecap="round" stroke-linejoin="round"/>
</svg>
