<svg width="220" height="86" viewBox="0 0 220 86" fill="none" xmlns="http://www.w3.org/2000/svg">
<g filter="url(#filter0_d_4125_66441)">
<mask id="path-1-inside-1_4125_66441" fill="white">
<path fill-rule="evenodd" clip-rule="evenodd" d="M178.083 18L170 4L161.917 18H16C11.5817 18 8 21.5817 8 26V66C8 70.4183 11.5817 74 16 74H204C208.418 74 212 70.4183 212 66V26C212 21.5817 208.418 18 204 18H178.083Z"/>
</mask>
<path fill-rule="evenodd" clip-rule="evenodd" d="M178.083 18L170 4L161.917 18H16C11.5817 18 8 21.5817 8 26V66C8 70.4183 11.5817 74 16 74H204C208.418 74 212 70.4183 212 66V26C212 21.5817 208.418 18 204 18H178.083Z" fill="white"/>
<path d="M170 4L170.866 3.5L170 2L169.134 3.5L170 4ZM178.083 18L177.217 18.5L177.506 19H178.083V18ZM161.917 18V19H162.494L162.783 18.5L161.917 18ZM169.134 4.5L177.217 18.5L178.949 17.5L170.866 3.5L169.134 4.5ZM162.783 18.5L170.866 4.5L169.134 3.5L161.051 17.5L162.783 18.5ZM16 19H161.917V17H16V19ZM9 26C9 22.134 12.134 19 16 19V17C11.0294 17 7 21.0294 7 26H9ZM9 66V26H7V66H9ZM16 73C12.134 73 9 69.866 9 66H7C7 70.9706 11.0294 75 16 75V73ZM204 73H16V75H204V73ZM211 66C211 69.866 207.866 73 204 73V75C208.971 75 213 70.9706 213 66H211ZM211 26V66H213V26H211ZM204 19C207.866 19 211 22.134 211 26H213C213 21.0294 208.971 17 204 17V19ZM178.083 19H204V17H178.083V19Z" fill="#D8D8D8" mask="url(#path-1-inside-1_4125_66441)"/>
</g>
<path d="M20.996 30.612H22.214V31.242C22.214 32.46 23.068 33.566 24.552 34L23.922 34.938C22.816 34.574 22.046 33.874 21.626 32.978C21.192 34 20.352 34.798 19.134 35.218L18.504 34.252C20.1 33.748 20.996 32.544 20.996 31.242V30.612ZM18.35 35.918C20.016 35.918 22.704 35.89 24.706 35.582L24.79 36.52C23.964 36.688 23.068 36.8 22.172 36.87V41.084H20.954V36.94C20.044 36.982 19.19 36.996 18.504 36.996L18.35 35.918ZM23.236 38.648V37.654H25.462V29.982H26.666V41.434H25.462V38.648H23.236ZM27.814 42.078V29.73H29.046V42.078H27.814ZM39.3363 29.73H40.6243V42.078H39.3363V29.73ZM30.4463 38.004H32.0703V32.04H30.7543V31.018H37.7403V32.04H36.4383V37.836C37.0823 37.794 37.7123 37.738 38.3283 37.668L38.4123 38.592C35.7663 39.026 32.8263 39.054 30.5723 39.068L30.4463 38.004ZM33.2883 37.976C33.9183 37.962 34.5623 37.948 35.2063 37.92V32.04H33.2883V37.976ZM42.4447 34.798H53.6027V35.834H42.4447V34.798ZM43.7607 37.794V36.814H52.1747V39.796H45.0487V40.93H52.5387V41.938H43.8027V38.858H50.9147V37.794H43.7607ZM43.9007 33.874V30.094H52.1467V31.13H45.1747V32.866H52.2727V33.874H43.9007ZM63.235 29.702H64.509V42.092H63.235V29.702ZM54.807 34.98C54.807 32.32 56.123 30.654 57.971 30.654C59.805 30.654 61.135 32.32 61.135 34.98C61.135 37.626 59.805 39.32 57.971 39.32C56.123 39.32 54.807 37.626 54.807 34.98ZM56.039 34.98C56.039 36.94 56.837 38.172 57.971 38.172C59.105 38.172 59.903 36.94 59.903 34.98C59.903 33.02 59.105 31.802 57.971 31.802C56.837 31.802 56.039 33.02 56.039 34.98ZM78.1519 29.73H79.4399V38.704H78.1519V29.73ZM69.5419 33.636C69.5419 31.83 70.9559 30.57 72.7899 30.57C74.6379 30.57 76.0379 31.83 76.0379 33.636C76.0379 35.414 74.6379 36.688 72.7899 36.688C70.9559 36.688 69.5419 35.414 69.5419 33.636ZM70.7879 33.636C70.7879 34.784 71.6559 35.568 72.7899 35.568C73.9379 35.568 74.8059 34.784 74.8059 33.636C74.8059 32.46 73.9379 31.676 72.7899 31.676C71.6559 31.676 70.7879 32.46 70.7879 33.636ZM71.4459 41.812V37.794H72.7199V40.762H79.8039V41.812H71.4459ZM87.8402 32.88H90.1642V29.73H91.4382V37.066H90.1642V33.93H87.8402V32.88ZM81.2602 35.974C83.1362 35.302 84.3262 33.65 84.3262 31.914V31.634H81.6382V30.584H88.2462V31.634H85.6002V31.914C85.6002 33.482 86.7202 35.008 88.5542 35.638L87.9102 36.646C86.5382 36.156 85.5302 35.162 84.9982 33.944C84.4662 35.33 83.3742 36.45 81.9042 36.996L81.2602 35.974ZM83.2062 39.754C83.2062 38.298 84.7742 37.43 87.3502 37.43C89.9122 37.43 91.4802 38.298 91.4802 39.754C91.4802 41.224 89.9122 42.064 87.3502 42.064C84.7742 42.064 83.2062 41.224 83.2062 39.754ZM84.4802 39.754C84.4802 40.594 85.5442 41.084 87.3502 41.084C89.1422 41.084 90.2202 40.594 90.2202 39.754C90.2202 38.9 89.1422 38.41 87.3502 38.41C85.5442 38.41 84.4802 38.9 84.4802 39.754ZM101.533 29.73H102.821V33.72H104.599V34.784H102.821V38.984H101.533V29.73ZM93.2305 32.194V31.172H96.2405V29.73H97.5145V31.172H100.525V32.194H93.2305ZM93.9025 35.148C93.9025 33.748 95.1205 32.824 96.8705 32.824C98.6345 32.824 99.8525 33.748 99.8525 35.148C99.8525 36.548 98.6345 37.458 96.8705 37.458C95.1205 37.458 93.9025 36.548 93.9025 35.148ZM95.0785 41.812V38.256H96.3385V40.762H103.353V41.812H95.0785ZM95.1205 35.148C95.1205 35.96 95.8345 36.478 96.8705 36.478C97.9205 36.478 98.6205 35.96 98.6205 35.148C98.6205 34.322 97.9205 33.818 96.8705 33.818C95.8345 33.818 95.1205 34.322 95.1205 35.148ZM108.595 30.64H114.223V36.17H108.595V30.64ZM109.267 41.014C111.563 40.65 113.327 39.348 113.327 37.696V37.332H114.587V37.696C114.587 39.348 116.351 40.65 118.647 41.014L118.143 42.036C116.267 41.7 114.699 40.776 113.957 39.432C113.215 40.776 111.633 41.7 109.757 42.036L109.267 41.014ZM109.855 35.162H112.963V31.662H109.855V35.162ZM116.449 37.906V29.716H117.737V33.02H119.501V34.07H117.737V37.906H116.449ZM120.538 30.5H127.272V31.522H124.57V31.69C124.57 33.23 125.774 34.672 127.65 35.232L127.02 36.226C125.592 35.792 124.5 34.84 123.94 33.622C123.394 34.924 122.302 35.96 120.818 36.436L120.174 35.442C122.078 34.854 123.268 33.328 123.268 31.69V31.522H120.538V30.5ZM122.19 41.91V36.996H123.45V38.382H128.938V36.996H130.198V41.91H122.19ZM123.45 40.874H128.938V39.39H123.45V40.874ZM128.924 36.422V29.73H130.198V36.422H128.924ZM137.59 29.94C140.334 29.94 141.972 30.682 141.972 32.054C141.972 33.44 140.334 34.196 137.59 34.196C134.86 34.196 133.222 33.44 133.222 32.054C133.222 30.682 134.86 29.94 137.59 29.94ZM132.018 35.988V34.966H143.176V35.988H132.018ZM133.348 37.92V36.954H141.762V39.824H134.636V40.958H142.126V41.952H133.39V38.914H140.502V37.92H133.348ZM134.538 32.054C134.538 32.824 135.644 33.23 137.59 33.23C139.55 33.23 140.656 32.824 140.656 32.054C140.656 31.298 139.55 30.878 137.59 30.878C135.644 30.878 134.538 31.298 134.538 32.054ZM147.551 32.95L148.447 30.01H149.329L148.867 32.95H147.551ZM150.945 30.64H156.573V36.17H150.945V30.64ZM151.617 41.014C153.913 40.65 155.677 39.348 155.677 37.696V37.332H156.937V37.696C156.937 39.348 158.701 40.65 160.997 41.014L160.493 42.036C158.617 41.7 157.049 40.776 156.307 39.432C155.565 40.776 153.983 41.7 152.107 42.036L151.617 41.014ZM152.205 35.162H155.313V31.662H152.205V35.162ZM158.799 37.906V29.716H160.087V33.02H161.851V34.07H160.087V37.906H158.799ZM165.422 37.304H166.654V37.906C166.654 38.97 167.186 40.09 168.292 40.776C169.426 40.048 169.972 38.858 169.972 37.906V37.304H171.232V37.906C171.232 39.18 172.086 40.426 173.668 40.958L173.038 41.896C171.834 41.476 171.008 40.65 170.574 39.628C170.196 40.622 169.454 41.546 168.334 42.022C167.158 41.56 166.416 40.692 166.038 39.684C165.59 40.65 164.778 41.476 163.63 41.896L162.986 40.958C164.568 40.398 165.422 39.096 165.422 37.906V37.304ZM162.678 33.328C162.678 31.62 164.05 30.43 165.926 30.43C167.802 30.43 169.174 31.62 169.174 33.328C169.174 35.036 167.802 36.212 165.926 36.212C164.05 36.212 162.678 35.036 162.678 33.328ZM163.924 33.328C163.924 34.434 164.764 35.162 165.926 35.162C167.088 35.162 167.928 34.434 167.928 33.328C167.928 32.236 167.088 31.494 165.926 31.494C164.764 31.494 163.924 32.236 163.924 33.328ZM171.288 36.772V29.73H172.576V36.772H171.288ZM177.672 30.654C179.338 30.654 180.57 32.068 180.752 34.378H183.3V29.702H184.574V42.092H183.3V35.4H180.766C180.64 37.808 179.38 39.32 177.672 39.32C175.866 39.32 174.578 37.626 174.578 34.98C174.578 32.32 175.866 30.654 177.672 30.654ZM175.782 34.98C175.782 36.94 176.552 38.172 177.672 38.172C178.806 38.172 179.562 36.94 179.562 34.98C179.562 33.02 178.806 31.802 177.672 31.802C176.552 31.802 175.782 33.02 175.782 34.98ZM186.324 39.46H189.012V36.198C188.004 35.652 187.388 34.77 187.388 33.664C187.388 31.718 189.292 30.458 191.896 30.458C194.542 30.458 196.418 31.718 196.418 33.664C196.418 34.756 195.83 35.624 194.836 36.184V39.46H197.51V40.51H186.324V39.46ZM188.634 33.664C188.634 35.008 189.992 35.862 191.896 35.862C193.814 35.862 195.172 35.008 195.172 33.664C195.172 32.32 193.814 31.466 191.896 31.466C189.992 31.466 188.634 32.32 188.634 33.664ZM190.272 39.46H193.548V36.674C193.044 36.8 192.484 36.856 191.896 36.856C191.322 36.856 190.776 36.8 190.272 36.674V39.46ZM199.989 30.038L199.835 32.964H198.925L198.771 30.038H199.989ZM18.532 55.708H29.69V56.73H18.532V55.708ZM19.764 59.138V58.102H28.332V62.134H27.058V59.138H19.764ZM19.932 54.406V50.192H28.304V51.228H21.192V53.398H28.416V54.406H19.932ZM30.4743 59.558H33.4983V56.772H31.4683V55.75H33.2883V51.858H31.4403V50.822H40.6523V51.858H38.7903V55.75H40.6243V56.772H38.5803V59.558H41.6603V60.594H30.4743V59.558ZM34.5763 55.75H37.5163V51.858H34.5763V55.75ZM34.7723 59.558H37.3203V56.772H34.7723V59.558ZM48.0027 49.87C50.7467 49.87 52.3847 50.626 52.3847 51.984C52.3847 53.37 50.7467 54.126 48.0027 54.126C45.2727 54.126 43.6347 53.37 43.6347 51.984C43.6347 50.626 45.2727 49.87 48.0027 49.87ZM42.4307 55.834V54.812H53.5887V55.834H50.5787V56.954H52.1747V59.824H45.0487V60.958H52.5387V61.952H43.8027V58.914H50.9147V57.92H43.7607V56.954H45.3987V55.834H42.4307ZM44.9507 51.984C44.9507 52.754 46.0567 53.16 48.0027 53.16C49.9627 53.16 51.0687 52.754 51.0687 51.984C51.0687 51.242 49.9627 50.822 48.0027 50.822C46.0567 50.822 44.9507 51.242 44.9507 51.984ZM46.6587 56.954H49.3047V55.834H46.6587V56.954ZM62.2615 50.038H63.5775V50.598C63.5775 52.152 65.5655 53.636 67.8475 53.972L67.3575 54.98C65.4395 54.658 63.7175 53.65 62.9195 52.264C62.1495 53.664 60.4135 54.672 58.4675 54.994L57.9775 54C60.2875 53.65 62.2615 52.194 62.2615 50.598V50.038ZM57.3195 56.982V55.96H68.5055V56.982H63.6615V59.404H62.3735V56.982H57.3195ZM58.7195 61.812V58.242H59.9935V60.762H67.2735V61.812H58.7195ZM74.8619 50.458C77.4519 50.458 79.3839 51.83 79.3839 53.902C79.3839 55.974 77.4519 57.346 74.8619 57.346C72.2999 57.346 70.3539 55.974 70.3539 53.902C70.3539 51.83 72.2999 50.458 74.8619 50.458ZM69.2899 60.454V59.39H80.4759V60.454H69.2899ZM71.5859 53.902C71.5859 55.358 72.9859 56.296 74.8619 56.296C76.7659 56.296 78.1519 55.358 78.1519 53.902C78.1519 52.446 76.7659 51.494 74.8619 51.494C72.9859 51.494 71.5859 52.446 71.5859 53.902ZM81.2462 59.53H86.1882V57.318H82.6182V53.412H89.8142V51.634H82.5902V50.598H91.0882V54.42H83.8782V56.282H91.3682V57.318H87.4622V59.53H92.4322V60.58H81.2462V59.53ZM96.1491 59.46H101.091V56.898H97.4371V50.57H98.7111V52.698H104.759V50.57H106.033V56.898H102.365V59.46H107.335V60.524H96.1491V59.46ZM98.7111 55.876H104.759V53.734H98.7111V55.876ZM111.409 50.654C112.529 50.654 113.453 51.298 113.999 52.418H117.037V49.702H118.311V62.092H117.037V57.346H114.083C113.565 58.592 112.599 59.32 111.409 59.32C109.603 59.32 108.315 57.626 108.315 54.98C108.315 52.32 109.603 50.654 111.409 50.654ZM109.519 54.98C109.519 56.94 110.289 58.172 111.409 58.172C112.543 58.172 113.313 56.94 113.313 54.98C113.313 53.02 112.543 51.802 111.409 51.802C110.289 51.802 109.519 53.02 109.519 54.98ZM114.363 53.468C114.461 53.93 114.517 54.434 114.517 54.98C114.517 55.456 114.475 55.904 114.391 56.31H117.037V53.468H114.363ZM121.462 50.822H129.862V51.872H122.722V55.582H129.988V56.618H121.462V50.822ZM120.062 60.426V59.376H131.248V60.426H120.062ZM140.936 49.702H142.196V62.092H140.936V56.898H138.528V55.876H140.936V53.538H138.584V52.488H140.936V49.702ZM132.438 51.858V50.822H137.856V55.316H133.726V58.172C135.462 58.158 136.946 58.102 138.71 57.836L138.808 58.886C136.904 59.194 135.336 59.236 133.39 59.236H132.452V54.28H136.596V51.858H132.438ZM143.974 59.46H146.662V56.198C145.654 55.652 145.038 54.77 145.038 53.664C145.038 51.718 146.942 50.458 149.546 50.458C152.192 50.458 154.068 51.718 154.068 53.664C154.068 54.756 153.48 55.624 152.486 56.184V59.46H155.16V60.51H143.974V59.46ZM146.284 53.664C146.284 55.008 147.642 55.862 149.546 55.862C151.464 55.862 152.822 55.008 152.822 53.664C152.822 52.32 151.464 51.466 149.546 51.466C147.642 51.466 146.284 52.32 146.284 53.664ZM147.922 59.46H151.198V56.674C150.694 56.8 150.134 56.856 149.546 56.856C148.972 56.856 148.426 56.8 147.922 56.674V59.46ZM158.493 50.668L158.297 58.438H157.149L156.925 50.668H158.493ZM156.939 60.454C156.939 60.006 157.275 59.684 157.737 59.684C158.185 59.684 158.507 60.006 158.507 60.454C158.507 60.93 158.185 61.252 157.737 61.252C157.275 61.252 156.939 60.93 156.939 60.454Z" fill="#454545"/>
<defs>
<filter id="filter0_d_4125_66441" x="0" y="0" width="220" height="86" filterUnits="userSpaceOnUse" color-interpolation-filters="sRGB">
<feFlood flood-opacity="0" result="BackgroundImageFix"/>
<feColorMatrix in="SourceAlpha" type="matrix" values="0 0 0 0 0 0 0 0 0 0 0 0 0 0 0 0 0 0 127 0" result="hardAlpha"/>
<feOffset dy="4"/>
<feGaussianBlur stdDeviation="4"/>
<feComposite in2="hardAlpha" operator="out"/>
<feColorMatrix type="matrix" values="0 0 0 0 0.486275 0 0 0 0 0.415686 0 0 0 0 0.415686 0 0 0 0.25 0"/>
<feBlend mode="normal" in2="BackgroundImageFix" result="effect1_dropShadow_4125_66441"/>
<feBlend mode="normal" in="SourceGraphic" in2="effect1_dropShadow_4125_66441" result="shape"/>
</filter>
</defs>
</svg>
