<svg width="48" height="48" viewBox="0 0 48 48" fill="none" xmlns="http://www.w3.org/2000/svg">
<path fill-rule="evenodd" clip-rule="evenodd" d="M13.7384 8.93846C13.1659 7.38365 14.5594 6 16.2162 6L21 6L25.7838 6C27.4406 6 28.8341 7.38365 28.2616 8.93846C28.2389 9.00013 28.2154 9.06155 28.1913 9.1227C27.8001 10.1127 27.2268 11.0123 26.504 11.77C25.8335 12.4728 25.0467 13.0409 24.1825 13.4468C32.4669 14.7443 39 21.0322 39 29.2002C39 38.3902 37.2162 42.0002 21 42.0002C4.78378 42.0002 3 38.3902 3 29.2002C3 21.0322 9.53314 14.7443 17.8175 13.4468C16.9533 13.0409 16.1665 12.4728 15.496 11.77C14.7732 11.0123 14.1999 10.1127 13.8087 9.1227C13.7846 9.06155 13.7611 9.00013 13.7384 8.93846Z" fill="#FFBFC9"/>
<rect x="15" y="12" width="12" height="2" rx="1" fill="#EB4351"/>
<path d="M14 28H29" stroke="white" stroke-width="2" stroke-linecap="round"/>
<path d="M16 24L17.8831 33.0388C17.9893 33.5486 18.7068 33.5768 18.8526 33.0769L20.9829 25.773C21.1257 25.2832 21.8242 25.2968 21.9479 25.7918L23.7649 33.0597C23.8912 33.5647 24.6088 33.5647 24.7351 33.0597L27 24" stroke="white" stroke-width="2" stroke-linecap="round"/>
<rect x="31" y="28" width="14" height="14" rx="7" fill="#EB4351"/>
<path d="M38.9162 30L38.7605 36.9168H37.2277L37.0721 30H38.9162ZM37.0002 38.854C36.9883 38.2265 37.4433 37.7149 38.0061 37.7217C38.539 37.7149 39 38.2265 39 38.854C39 39.4884 38.539 40 38.0061 40C37.4433 40 36.9883 39.4884 37.0002 38.854Z" fill="white"/>
</svg>
