<svg width="18" height="18" viewBox="0 0 18 18" fill="none" xmlns="http://www.w3.org/2000/svg">
<g clip-path="url(#clip0_4318_11946)">
<path opacity="0.25" d="M18 0H0V18H18V0Z" fill="white"/>
<path opacity="0.25" d="M16 2H2V16H16V2Z" fill="white"/>
<path opacity="0.25" d="M15 17L15 1L3 1L3 17H15Z" fill="white"/>
<path opacity="0.25" d="M17 3H1V15H17V3Z" fill="white"/>
<path d="M5 3.5C5.8271 3.5 6.5 4.1729 6.5 5V7C6.5 7.8271 5.8271 8.5 5 8.5C4.1729 8.5 3.5 7.8271 3.5 7V5C3.5 4.1729 4.1729 3.5 5 3.5ZM5 2C3.3431 2 2 3.3431 2 5V7C2 8.6569 3.3431 10 5 10C6.6569 10 8 8.6569 8 7V5C8 3.3431 6.6569 2 5 2Z" fill="#9E9E9E"/>
<path d="M5 9.5V15" stroke="#9E9E9E" stroke-width="1.5" stroke-miterlimit="10" stroke-linecap="round"/>
<path d="M13 4V15" stroke="#9E9E9E" stroke-width="1.5" stroke-miterlimit="10" stroke-linecap="round"/>
<path d="M16 3V8H10V3" stroke="#9E9E9E" stroke-width="1.5" stroke-linecap="round" stroke-linejoin="round"/>
</g>
<defs>
<clipPath id="clip0_4318_11946">
<rect width="18" height="18" fill="white"/>
</clipPath>
</defs>
</svg>
